<svg width="26" height="25" viewBox="0 0 26 25" fill="none" xmlns="http://www.w3.org/2000/svg">
<rect width="25.7812" height="25" rx="5" fill="#FF4267"/>
<path d="M7.96188 10.3029C9.55233 7.45172 10.3475 6.02612 11.3896 5.59667C12.1067 5.30111 12.8929 5.30111 13.6101 5.59667C14.6521 6.02612 15.4473 7.45172 17.0378 10.3029C18.828 13.5122 19.7231 15.1168 19.5654 16.4408C19.4573 17.349 19.0534 18.1786 18.433 18.7671C17.5285 19.625 15.8523 19.625 12.4998 19.625C9.14741 19.625 7.47119 19.625 6.56668 18.7671C5.94628 18.1786 5.54241 17.349 5.43428 16.4408C5.27662 15.1168 6.17171 13.5122 7.96188 10.3029Z" stroke="white" stroke-width="1.5" stroke-linejoin="round"/>
<path d="M11.99 14.82V9.7H12.97V14.82H11.99ZM11.9 17V15.78H13.06V17H11.9Z" fill="white"/>
</svg>
