<svg width="190" height="68" viewBox="0 0 190 68" fill="none" xmlns="http://www.w3.org/2000/svg">
<rect width="189.073" height="68" rx="10" fill="#F9F9FF"/>
<g clip-path="url(#clip0_1_13)">
<path fill-rule="evenodd" clip-rule="evenodd" d="M113.739 39.2769C113.739 34.5889 116.812 30.7396 121.505 30.7396C127.016 30.7396 132.63 38.1394 127.236 44.8354C123.759 49.1516 116.672 48.1148 114.437 42.5338C114.136 41.7829 113.739 40.2185 113.739 39.2769ZM121.725 55.5609C123.805 55.4618 125.873 54.8823 127.897 53.8746C128.884 53.3836 129.414 53.065 130.287 52.4637C131.021 51.9575 132.075 50.9576 132.599 50.8181C132.722 51.2785 133.727 52.5289 134.072 52.9854C135.74 55.1954 134.878 54.9285 137.513 54.9285V11.6097H129.43V25.8387C129.018 25.5381 128.544 24.5195 126.309 23.5767C122.717 22.0621 118.371 22.597 115.009 24.1011C106.798 27.7741 103.488 38.052 107.028 45.9717C108.747 49.8194 111.096 52.1743 114.795 54.0338C116.667 54.9751 118.56 55.4704 120.45 55.5609H121.725Z" fill="#413B92"/>
<path fill-rule="evenodd" clip-rule="evenodd" d="M86.7962 47.498C82.0114 47.498 78.8719 44.2376 78.8719 39.9093C78.8719 37.6512 78.8742 35.9691 80.231 33.9926C80.4638 33.6531 80.7929 33.1881 81.0488 32.9112C81.5464 32.3716 82.6018 31.7267 83.3506 31.4132C89.2971 28.924 94.4036 34.0699 94.4036 38.8026C94.4036 41.354 93.7077 43.3795 92.0683 45.0103C90.8291 46.2432 89.1951 47.498 86.7962 47.498ZM86.4201 55.5609C88.5681 55.5058 90.747 54.9961 92.8222 53.9834C95.457 52.6976 96.0174 51.7513 97.415 50.8178C97.8656 51.1185 98.6394 52.3604 99.0012 52.872C100.814 55.4355 100.029 54.9281 102.487 54.9281V23.9415C100.302 23.9415 100.724 23.7885 100.264 24.2542L97.5731 27.5779C95.8145 26.4032 95.7927 25.9114 93.029 24.3638C89.1192 22.1744 83.814 22.1721 79.8731 24.1505C76.1362 26.0264 73.624 28.4287 71.9635 32.3863C71.2291 34.1375 70.6301 36.7251 70.6301 39.1192C70.6301 49.121 77.7936 55.3387 85.5953 55.5613H86.4201V55.5609Z" fill="#413B92"/>
<path fill-rule="evenodd" clip-rule="evenodd" d="M148.606 39.1189C148.606 38.1287 148.951 36.5064 149.237 35.7952C152.556 27.5399 164.297 29.9449 164.297 39.1189C164.297 47.2657 155.216 50.0211 150.785 45.0088C149.697 43.7785 148.606 41.3801 148.606 39.1189ZM172.38 37.6885C171.587 25.7949 158.337 18.1337 147.368 25.5522C145.071 27.106 143.194 29.5059 142.002 32.0562C141.258 33.6501 140.524 36.2256 140.524 38.4865C140.524 41.4986 140.81 43.5338 141.952 46.0735C144.572 51.8982 150.05 55.3586 155.849 55.561H156.928C160.723 55.4278 164.588 53.891 167.824 50.7001C169.004 49.5367 170.31 47.5998 170.978 45.9419C171.804 43.8939 172.251 41.8909 172.38 39.9731V37.6885Z" fill="#413B92"/>
<path fill-rule="evenodd" clip-rule="evenodd" d="M16.5853 21.7283H29.1061V54.9287H37.5059V21.7283H50.0267V13.3491H16.5853V21.7283Z" fill="#413B92"/>
<path fill-rule="evenodd" clip-rule="evenodd" d="M49.5511 54.9286H57.4755V38.4865C57.4755 30.6259 64.8629 31.8465 70.4717 31.8465V23.9416C66.1347 23.9416 61.9301 23.458 57.9713 25.0682C56.8326 25.5312 55.9163 26.077 54.963 26.8104C54.6195 27.0746 54.4236 27.3038 53.9886 27.4196C53.5747 26.8031 53.1806 26.2759 52.7522 25.6493C52.5014 25.2826 52.3094 25.0503 52.0906 24.7283C51.4391 23.7707 51.943 23.9416 49.5511 23.9416V54.9286Z" fill="#413B92"/>
</g>
<defs>
<clipPath id="clip0_1_13">
<rect width="155.795" height="43.9512" fill="white" transform="translate(16.5853 11.6101)"/>
</clipPath>
</defs>
</svg>
