<svg xmlns="http://www.w3.org/2000/svg" xmlns:xlink="http://www.w3.org/1999/xlink" width="70" zoomAndPan="magnify" viewBox="0 0 52.5 30.000001" height="40" preserveAspectRatio="xMidYMid meet" version="1.0"><defs><g/><clipPath id="231e6c05cd"><path d="M 30.230469 9.589844 L 49.828125 9.589844 L 49.828125 11.769531 L 30.230469 11.769531 Z M 30.230469 9.589844 " clip-rule="nonzero"/></clipPath><clipPath id="3a2d613f77"><path d="M 18.082031 17.523438 L 49.292969 17.523438 L 49.292969 20.429688 L 18.082031 20.429688 Z M 18.082031 17.523438 " clip-rule="nonzero"/></clipPath></defs><g fill="#000000" fill-opacity="1"><g transform="translate(1.620967, 16.601065)"><g><path d="M 4.0625 -5.21875 L 4.0625 -4.375 L 2.671875 -4.375 L 2.671875 0 L 1.625 0 L 1.625 -4.375 L 0.234375 -4.375 L 0.234375 -5.21875 Z M 4.0625 -5.21875 "/></g></g></g><g fill="#000000" fill-opacity="1"><g transform="translate(5.931394, 16.601065)"><g><path d="M 1.5625 -3.5 C 1.695312 -3.71875 1.867188 -3.890625 2.078125 -4.015625 C 2.296875 -4.140625 2.546875 -4.203125 2.828125 -4.203125 L 2.828125 -3.09375 L 2.546875 -3.09375 C 2.222656 -3.09375 1.976562 -3.015625 1.8125 -2.859375 C 1.644531 -2.710938 1.5625 -2.445312 1.5625 -2.0625 L 1.5625 0 L 0.515625 0 L 0.515625 -4.140625 L 1.5625 -4.140625 Z M 1.5625 -3.5 "/></g></g></g><g fill="#000000" fill-opacity="1"><g transform="translate(8.949441, 16.601065)"><g><path d="M 0.25 -2.078125 C 0.25 -2.503906 0.332031 -2.878906 0.5 -3.203125 C 0.664062 -3.523438 0.890625 -3.769531 1.171875 -3.9375 C 1.460938 -4.113281 1.785156 -4.203125 2.140625 -4.203125 C 2.441406 -4.203125 2.707031 -4.140625 2.9375 -4.015625 C 3.175781 -3.890625 3.363281 -3.734375 3.5 -3.546875 L 3.5 -4.140625 L 4.5625 -4.140625 L 4.5625 0 L 3.5 0 L 3.5 -0.609375 C 3.363281 -0.410156 3.175781 -0.25 2.9375 -0.125 C 2.707031 0 2.4375 0.0625 2.125 0.0625 C 1.78125 0.0625 1.460938 -0.0234375 1.171875 -0.203125 C 0.890625 -0.378906 0.664062 -0.628906 0.5 -0.953125 C 0.332031 -1.285156 0.25 -1.660156 0.25 -2.078125 Z M 3.5 -2.0625 C 3.5 -2.320312 3.445312 -2.539062 3.34375 -2.71875 C 3.25 -2.90625 3.117188 -3.046875 2.953125 -3.140625 C 2.785156 -3.234375 2.601562 -3.28125 2.40625 -3.28125 C 2.207031 -3.28125 2.023438 -3.234375 1.859375 -3.140625 C 1.703125 -3.046875 1.570312 -2.90625 1.46875 -2.71875 C 1.363281 -2.539062 1.3125 -2.328125 1.3125 -2.078125 C 1.3125 -1.828125 1.363281 -1.609375 1.46875 -1.421875 C 1.570312 -1.242188 1.707031 -1.101562 1.875 -1 C 2.039062 -0.894531 2.21875 -0.84375 2.40625 -0.84375 C 2.601562 -0.84375 2.785156 -0.890625 2.953125 -0.984375 C 3.117188 -1.085938 3.25 -1.226562 3.34375 -1.40625 C 3.445312 -1.59375 3.5 -1.8125 3.5 -2.0625 Z M 3.5 -2.0625 "/></g></g></g><g fill="#000000" fill-opacity="1"><g transform="translate(14.01438, 16.601065)"><g><path d="M 0.25 -2.078125 C 0.25 -2.503906 0.332031 -2.878906 0.5 -3.203125 C 0.664062 -3.523438 0.890625 -3.769531 1.171875 -3.9375 C 1.460938 -4.113281 1.785156 -4.203125 2.140625 -4.203125 C 2.410156 -4.203125 2.664062 -4.144531 2.90625 -4.03125 C 3.15625 -3.914062 3.351562 -3.757812 3.5 -3.5625 L 3.5 -5.53125 L 4.5625 -5.53125 L 4.5625 0 L 3.5 0 L 3.5 -0.609375 C 3.363281 -0.410156 3.175781 -0.25 2.9375 -0.125 C 2.707031 0 2.441406 0.0625 2.140625 0.0625 C 1.785156 0.0625 1.460938 -0.0234375 1.171875 -0.203125 C 0.890625 -0.378906 0.664062 -0.628906 0.5 -0.953125 C 0.332031 -1.285156 0.25 -1.660156 0.25 -2.078125 Z M 3.5 -2.0625 C 3.5 -2.320312 3.445312 -2.539062 3.34375 -2.71875 C 3.25 -2.90625 3.117188 -3.046875 2.953125 -3.140625 C 2.785156 -3.234375 2.601562 -3.28125 2.40625 -3.28125 C 2.207031 -3.28125 2.023438 -3.234375 1.859375 -3.140625 C 1.703125 -3.046875 1.570312 -2.90625 1.46875 -2.71875 C 1.363281 -2.539062 1.3125 -2.328125 1.3125 -2.078125 C 1.3125 -1.828125 1.363281 -1.609375 1.46875 -1.421875 C 1.570312 -1.242188 1.707031 -1.101562 1.875 -1 C 2.039062 -0.894531 2.21875 -0.84375 2.40625 -0.84375 C 2.601562 -0.84375 2.785156 -0.890625 2.953125 -0.984375 C 3.117188 -1.085938 3.25 -1.226562 3.34375 -1.40625 C 3.445312 -1.59375 3.5 -1.8125 3.5 -2.0625 Z M 3.5 -2.0625 "/></g></g></g><g fill="#000000" fill-opacity="1"><g transform="translate(19.07932, 16.601065)"><g><path d="M 4.359375 -2.15625 C 4.359375 -2.007812 4.347656 -1.875 4.328125 -1.75 L 1.3125 -1.75 C 1.332031 -1.457031 1.429688 -1.222656 1.609375 -1.046875 C 1.796875 -0.878906 2.023438 -0.796875 2.296875 -0.796875 C 2.691406 -0.796875 2.96875 -0.960938 3.125 -1.296875 L 4.25 -1.296875 C 4.132812 -0.898438 3.90625 -0.570312 3.5625 -0.3125 C 3.226562 -0.0625 2.816406 0.0625 2.328125 0.0625 C 1.921875 0.0625 1.5625 -0.0234375 1.25 -0.203125 C 0.9375 -0.378906 0.691406 -0.628906 0.515625 -0.953125 C 0.335938 -1.273438 0.25 -1.644531 0.25 -2.0625 C 0.25 -2.5 0.332031 -2.878906 0.5 -3.203125 C 0.675781 -3.523438 0.921875 -3.769531 1.234375 -3.9375 C 1.546875 -4.113281 1.910156 -4.203125 2.328125 -4.203125 C 2.710938 -4.203125 3.0625 -4.117188 3.375 -3.953125 C 3.6875 -3.785156 3.925781 -3.546875 4.09375 -3.234375 C 4.269531 -2.921875 4.359375 -2.5625 4.359375 -2.15625 Z M 3.28125 -2.453125 C 3.269531 -2.722656 3.171875 -2.9375 2.984375 -3.09375 C 2.796875 -3.257812 2.566406 -3.34375 2.296875 -3.34375 C 2.035156 -3.34375 1.816406 -3.265625 1.640625 -3.109375 C 1.460938 -2.953125 1.351562 -2.734375 1.3125 -2.453125 Z M 3.28125 -2.453125 "/></g></g></g><g fill="#000000" fill-opacity="1"><g transform="translate(23.688565, 16.601065)"><g><path d="M 6.203125 -5.21875 L 6.203125 0 L 5.15625 0 L 5.15625 -3.390625 L 3.75 0 L 2.96875 0 L 1.5625 -3.390625 L 1.5625 0 L 0.515625 0 L 0.515625 -5.21875 L 1.703125 -5.21875 L 3.359375 -1.34375 L 5.015625 -5.21875 Z M 6.203125 -5.21875 "/></g></g></g><g fill="#4285f4" fill-opacity="1"><g transform="translate(30.404921, 16.601065)"><g><path d="M 0.25 -2.078125 C 0.25 -2.503906 0.332031 -2.878906 0.5 -3.203125 C 0.664062 -3.523438 0.890625 -3.769531 1.171875 -3.9375 C 1.460938 -4.113281 1.785156 -4.203125 2.140625 -4.203125 C 2.441406 -4.203125 2.707031 -4.140625 2.9375 -4.015625 C 3.175781 -3.890625 3.363281 -3.734375 3.5 -3.546875 L 3.5 -4.140625 L 4.5625 -4.140625 L 4.5625 0 L 3.5 0 L 3.5 -0.609375 C 3.363281 -0.410156 3.175781 -0.25 2.9375 -0.125 C 2.707031 0 2.4375 0.0625 2.125 0.0625 C 1.78125 0.0625 1.460938 -0.0234375 1.171875 -0.203125 C 0.890625 -0.378906 0.664062 -0.628906 0.5 -0.953125 C 0.332031 -1.285156 0.25 -1.660156 0.25 -2.078125 Z M 3.5 -2.0625 C 3.5 -2.320312 3.445312 -2.539062 3.34375 -2.71875 C 3.25 -2.90625 3.117188 -3.046875 2.953125 -3.140625 C 2.785156 -3.234375 2.601562 -3.28125 2.40625 -3.28125 C 2.207031 -3.28125 2.023438 -3.234375 1.859375 -3.140625 C 1.703125 -3.046875 1.570312 -2.90625 1.46875 -2.71875 C 1.363281 -2.539062 1.3125 -2.328125 1.3125 -2.078125 C 1.3125 -1.828125 1.363281 -1.609375 1.46875 -1.421875 C 1.570312 -1.242188 1.707031 -1.101562 1.875 -1 C 2.039062 -0.894531 2.21875 -0.84375 2.40625 -0.84375 C 2.601562 -0.84375 2.785156 -0.890625 2.953125 -0.984375 C 3.117188 -1.085938 3.25 -1.226562 3.34375 -1.40625 C 3.445312 -1.59375 3.5 -1.8125 3.5 -2.0625 Z M 3.5 -2.0625 "/></g></g></g><g fill="#000000" fill-opacity="1"><g transform="translate(35.470117, 16.601065)"><g><path d="M 2.09375 0.0625 C 1.757812 0.0625 1.457031 0.00390625 1.1875 -0.109375 C 0.914062 -0.234375 0.703125 -0.398438 0.546875 -0.609375 C 0.390625 -0.816406 0.304688 -1.050781 0.296875 -1.3125 L 1.34375 -1.3125 C 1.363281 -1.144531 1.441406 -1.007812 1.578125 -0.90625 C 1.710938 -0.800781 1.882812 -0.75 2.09375 -0.75 C 2.289062 -0.75 2.441406 -0.789062 2.546875 -0.875 C 2.660156 -0.957031 2.71875 -1.0625 2.71875 -1.1875 C 2.71875 -1.3125 2.648438 -1.40625 2.515625 -1.46875 C 2.378906 -1.539062 2.160156 -1.617188 1.859375 -1.703125 C 1.554688 -1.773438 1.304688 -1.847656 1.109375 -1.921875 C 0.910156 -2.003906 0.738281 -2.128906 0.59375 -2.296875 C 0.457031 -2.460938 0.390625 -2.6875 0.390625 -2.96875 C 0.390625 -3.195312 0.453125 -3.40625 0.578125 -3.59375 C 0.710938 -3.78125 0.90625 -3.925781 1.15625 -4.03125 C 1.40625 -4.144531 1.695312 -4.203125 2.03125 -4.203125 C 2.519531 -4.203125 2.910156 -4.078125 3.203125 -3.828125 C 3.492188 -3.585938 3.65625 -3.257812 3.6875 -2.84375 L 2.6875 -2.84375 C 2.675781 -3 2.609375 -3.125 2.484375 -3.21875 C 2.359375 -3.320312 2.195312 -3.375 2 -3.375 C 1.800781 -3.375 1.648438 -3.335938 1.546875 -3.265625 C 1.453125 -3.203125 1.40625 -3.109375 1.40625 -2.984375 C 1.40625 -2.835938 1.472656 -2.726562 1.609375 -2.65625 C 1.753906 -2.582031 1.972656 -2.507812 2.265625 -2.4375 C 2.566406 -2.363281 2.8125 -2.285156 3 -2.203125 C 3.195312 -2.128906 3.363281 -2.007812 3.5 -1.84375 C 3.644531 -1.675781 3.722656 -1.457031 3.734375 -1.1875 C 3.734375 -0.945312 3.664062 -0.726562 3.53125 -0.53125 C 3.394531 -0.34375 3.203125 -0.195312 2.953125 -0.09375 C 2.710938 0.0078125 2.425781 0.0625 2.09375 0.0625 Z M 2.09375 0.0625 "/></g></g></g><g fill="#000000" fill-opacity="1"><g transform="translate(39.541491, 16.601065)"><g><path d="M 1.734375 -3.28125 L 1.734375 -1.28125 C 1.734375 -1.132812 1.765625 -1.03125 1.828125 -0.96875 C 1.898438 -0.90625 2.015625 -0.875 2.171875 -0.875 L 2.65625 -0.875 L 2.65625 0 L 2 0 C 1.113281 0 0.671875 -0.425781 0.671875 -1.28125 L 0.671875 -3.28125 L 0.1875 -3.28125 L 0.1875 -4.140625 L 0.671875 -4.140625 L 0.671875 -5.15625 L 1.734375 -5.15625 L 1.734375 -4.140625 L 2.65625 -4.140625 L 2.65625 -3.28125 Z M 1.734375 -3.28125 "/></g></g></g><g fill="#000000" fill-opacity="1"><g transform="translate(42.440011, 16.601065)"><g><path d="M 4.359375 -2.15625 C 4.359375 -2.007812 4.347656 -1.875 4.328125 -1.75 L 1.3125 -1.75 C 1.332031 -1.457031 1.429688 -1.222656 1.609375 -1.046875 C 1.796875 -0.878906 2.023438 -0.796875 2.296875 -0.796875 C 2.691406 -0.796875 2.96875 -0.960938 3.125 -1.296875 L 4.25 -1.296875 C 4.132812 -0.898438 3.90625 -0.570312 3.5625 -0.3125 C 3.226562 -0.0625 2.816406 0.0625 2.328125 0.0625 C 1.921875 0.0625 1.5625 -0.0234375 1.25 -0.203125 C 0.9375 -0.378906 0.691406 -0.628906 0.515625 -0.953125 C 0.335938 -1.273438 0.25 -1.644531 0.25 -2.0625 C 0.25 -2.5 0.332031 -2.878906 0.5 -3.203125 C 0.675781 -3.523438 0.921875 -3.769531 1.234375 -3.9375 C 1.546875 -4.113281 1.910156 -4.203125 2.328125 -4.203125 C 2.710938 -4.203125 3.0625 -4.117188 3.375 -3.953125 C 3.6875 -3.785156 3.925781 -3.546875 4.09375 -3.234375 C 4.269531 -2.921875 4.359375 -2.5625 4.359375 -2.15625 Z M 3.28125 -2.453125 C 3.269531 -2.722656 3.171875 -2.9375 2.984375 -3.09375 C 2.796875 -3.257812 2.566406 -3.34375 2.296875 -3.34375 C 2.035156 -3.34375 1.816406 -3.265625 1.640625 -3.109375 C 1.460938 -2.953125 1.351562 -2.734375 1.3125 -2.453125 Z M 3.28125 -2.453125 "/></g></g></g><g fill="#000000" fill-opacity="1"><g transform="translate(47.049255, 16.601065)"><g><path d="M 1.5625 -3.5 C 1.695312 -3.71875 1.867188 -3.890625 2.078125 -4.015625 C 2.296875 -4.140625 2.546875 -4.203125 2.828125 -4.203125 L 2.828125 -3.09375 L 2.546875 -3.09375 C 2.222656 -3.09375 1.976562 -3.015625 1.8125 -2.859375 C 1.644531 -2.710938 1.5625 -2.445312 1.5625 -2.0625 L 1.5625 0 L 0.515625 0 L 0.515625 -4.140625 L 1.5625 -4.140625 Z M 1.5625 -3.5 "/></g></g></g><g clip-path="url(#231e6c05cd)"><path fill="#000000" d="M 49.578125 10.710938 C 48.378906 10.378906 47.164062 10.125 45.941406 9.953125 C 44.695312 9.777344 43.445312 9.679688 42.191406 9.632812 C 40.960938 9.589844 39.734375 9.601562 38.507812 9.648438 C 37.261719 9.699219 36.015625 9.785156 34.773438 9.890625 C 33.539062 9.996094 32.308594 10.117188 31.078125 10.265625 C 30.894531 10.285156 30.714844 10.308594 30.535156 10.328125 C 30.363281 10.347656 30.398438 10.660156 30.570312 10.644531 C 31.820312 10.523438 33.074219 10.40625 34.324219 10.296875 C 35.554688 10.191406 36.789062 10.101562 38.023438 10.046875 C 39.25 9.992188 40.476562 9.972656 41.703125 10.003906 C 42.941406 10.035156 44.179688 10.125 45.410156 10.28125 C 45.992188 10.355469 46.570312 10.445312 47.148438 10.550781 C 45.980469 10.484375 44.8125 10.429688 43.644531 10.40625 C 41.6875 10.359375 39.730469 10.394531 37.78125 10.589844 C 36.683594 10.699219 35.585938 10.863281 34.5 11.085938 C 34.335938 11.117188 34.378906 11.449219 34.546875 11.433594 C 36.207031 11.265625 37.871094 11.183594 39.539062 11.183594 C 41.195312 11.179688 42.851562 11.257812 44.503906 11.417969 C 44.96875 11.460938 45.433594 11.507812 45.898438 11.566406 C 46.125 11.59375 46.351562 11.621094 46.578125 11.648438 C 46.832031 11.683594 47.085938 11.703125 47.339844 11.742188 C 47.535156 11.769531 47.59375 11.414062 47.398438 11.386719 C 47.171875 11.351562 46.945312 11.300781 46.714844 11.269531 C 46.507812 11.242188 46.300781 11.214844 46.09375 11.1875 C 45.679688 11.132812 45.261719 11.089844 44.847656 11.046875 C 44.027344 10.964844 43.207031 10.90625 42.386719 10.867188 C 41.542969 10.828125 40.703125 10.804688 39.859375 10.804688 C 40.046875 10.796875 40.234375 10.789062 40.417969 10.785156 C 42.359375 10.722656 44.296875 10.785156 46.234375 10.886719 C 47.328125 10.945312 48.417969 11.019531 49.507812 11.09375 C 49.589844 11.097656 49.667969 11.035156 49.683594 10.9375 C 49.699219 10.851562 49.660156 10.730469 49.578125 10.710938 " fill-opacity="1" fill-rule="nonzero"/></g><g clip-path="url(#3a2d613f77)"><path fill="#000000" d="M 37.417969 17.558594 C 30.582031 17.699219 24.046875 17.960938 20.898438 18.226562 C 18.882812 18.398438 18.097656 18.539062 18.097656 18.714844 C 18.097656 18.789062 18.183594 18.789062 18.636719 18.714844 C 20.535156 18.40625 25.058594 18.15625 33.355469 17.925781 C 38.476562 17.777344 48.277344 17.777344 47.84375 17.925781 C 47.644531 17.992188 45.984375 18.082031 40.148438 18.351562 C 28.863281 18.867188 26.890625 19.011719 26.890625 19.328125 C 26.890625 19.546875 27.296875 19.621094 29.625 19.808594 C 30.441406 19.875 31.140625 19.953125 31.175781 19.984375 C 31.207031 20.015625 30.894531 20.082031 30.476562 20.136719 C 29.382812 20.289062 29.277344 20.308594 29.324219 20.34375 C 29.402344 20.417969 30.847656 20.292969 31.375 20.167969 C 31.582031 20.117188 31.628906 20.082031 31.609375 19.972656 C 31.582031 19.785156 31.28125 19.730469 29.496094 19.566406 C 27.671875 19.402344 27.472656 19.359375 28.191406 19.304688 C 29.808594 19.175781 33.21875 18.988281 38.949219 18.714844 C 46.9375 18.335938 48.410156 18.246094 49.027344 18.101562 C 49.222656 18.050781 49.273438 18.007812 49.273438 17.898438 C 49.273438 17.71875 49.167969 17.695312 48.082031 17.613281 C 46.898438 17.535156 40.386719 17.5 37.417969 17.558594 Z M 37.417969 17.558594 " fill-opacity="1" fill-rule="nonzero"/></g><g fill="#000000" fill-opacity="1"><g transform="translate(34.007895, 20.970084)"><g><path d="M 1.0625 -0.53125 C 1.0625 -0.445312 1.050781 -0.367188 1.03125 -0.296875 C 1.007812 -0.234375 0.984375 -0.175781 0.953125 -0.125 C 0.921875 -0.0820312 0.878906 -0.046875 0.828125 -0.015625 C 0.773438 0.00390625 0.710938 0.015625 0.640625 0.015625 C 0.609375 0.015625 0.578125 0.0078125 0.546875 0 C 0.523438 0 0.5 -0.00390625 0.46875 -0.015625 C 0.445312 -0.0234375 0.421875 -0.0390625 0.390625 -0.0625 C 0.367188 -0.09375 0.347656 -0.117188 0.328125 -0.140625 L 0.328125 -0.03125 C 0.328125 -0.0195312 0.320312 -0.0078125 0.3125 0 C 0.3125 0 0.304688 0 0.296875 0 C 0.296875 0 0.289062 0 0.28125 0 C 0.269531 0 0.257812 0 0.25 0 C 0.226562 0 0.210938 0 0.203125 0 C 0.191406 0 0.179688 0 0.171875 0 C 0.171875 -0.0078125 0.171875 -0.0195312 0.171875 -0.03125 L 0.171875 -1.46875 C 0.171875 -1.476562 0.171875 -1.484375 0.171875 -1.484375 C 0.171875 -1.492188 0.171875 -1.5 0.171875 -1.5 C 0.179688 -1.5 0.191406 -1.5 0.203125 -1.5 C 0.222656 -1.507812 0.238281 -1.515625 0.25 -1.515625 C 0.269531 -1.515625 0.285156 -1.507812 0.296875 -1.5 C 0.304688 -1.5 0.3125 -1.5 0.3125 -1.5 C 0.320312 -1.5 0.328125 -1.492188 0.328125 -1.484375 C 0.335938 -1.484375 0.34375 -1.476562 0.34375 -1.46875 L 0.34375 -0.890625 C 0.375 -0.921875 0.398438 -0.945312 0.421875 -0.96875 C 0.453125 -0.988281 0.476562 -1.003906 0.5 -1.015625 C 0.53125 -1.023438 0.554688 -1.03125 0.578125 -1.03125 C 0.609375 -1.039062 0.640625 -1.046875 0.671875 -1.046875 C 0.742188 -1.046875 0.800781 -1.03125 0.84375 -1 C 0.894531 -0.976562 0.9375 -0.941406 0.96875 -0.890625 C 1 -0.847656 1.019531 -0.796875 1.03125 -0.734375 C 1.050781 -0.671875 1.0625 -0.601562 1.0625 -0.53125 Z M 0.875 -0.5 C 0.875 -0.550781 0.867188 -0.597656 0.859375 -0.640625 C 0.847656 -0.691406 0.832031 -0.734375 0.8125 -0.765625 C 0.800781 -0.804688 0.78125 -0.835938 0.75 -0.859375 C 0.71875 -0.878906 0.675781 -0.890625 0.625 -0.890625 C 0.601562 -0.890625 0.582031 -0.882812 0.5625 -0.875 C 0.539062 -0.875 0.519531 -0.863281 0.5 -0.84375 C 0.476562 -0.832031 0.453125 -0.816406 0.421875 -0.796875 C 0.398438 -0.773438 0.375 -0.742188 0.34375 -0.703125 L 0.34375 -0.3125 C 0.394531 -0.257812 0.441406 -0.21875 0.484375 -0.1875 C 0.523438 -0.15625 0.570312 -0.140625 0.625 -0.140625 C 0.664062 -0.140625 0.703125 -0.148438 0.734375 -0.171875 C 0.765625 -0.191406 0.789062 -0.21875 0.8125 -0.25 C 0.832031 -0.289062 0.847656 -0.332031 0.859375 -0.375 C 0.867188 -0.414062 0.875 -0.457031 0.875 -0.5 Z M 0.875 -0.5 "/></g></g></g><g fill="#000000" fill-opacity="1"><g transform="translate(35.174863, 20.970084)"><g><path d="M 0.609375 0 L 0.484375 0.359375 C 0.472656 0.367188 0.457031 0.375 0.4375 0.375 C 0.425781 0.382812 0.398438 0.390625 0.359375 0.390625 C 0.347656 0.390625 0.332031 0.390625 0.3125 0.390625 C 0.300781 0.390625 0.289062 0.382812 0.28125 0.375 C 0.28125 0.375 0.28125 0.367188 0.28125 0.359375 C 0.28125 0.359375 0.285156 0.351562 0.296875 0.34375 L 0.421875 0 C 0.410156 0 0.398438 -0.00390625 0.390625 -0.015625 C 0.390625 -0.0234375 0.390625 -0.03125 0.390625 -0.03125 L 0.046875 -0.96875 C 0.0351562 -0.976562 0.03125 -0.988281 0.03125 -1 C 0.03125 -1.007812 0.03125 -1.015625 0.03125 -1.015625 C 0.0390625 -1.023438 0.0507812 -1.03125 0.0625 -1.03125 C 0.0820312 -1.03125 0.101562 -1.03125 0.125 -1.03125 C 0.144531 -1.03125 0.160156 -1.03125 0.171875 -1.03125 C 0.179688 -1.03125 0.191406 -1.03125 0.203125 -1.03125 C 0.210938 -1.03125 0.21875 -1.023438 0.21875 -1.015625 C 0.21875 -1.003906 0.222656 -1 0.234375 -1 L 0.515625 -0.21875 L 0.78125 -1 C 0.78125 -1.007812 0.785156 -1.015625 0.796875 -1.015625 C 0.804688 -1.023438 0.816406 -1.03125 0.828125 -1.03125 C 0.835938 -1.03125 0.851562 -1.03125 0.875 -1.03125 C 0.894531 -1.03125 0.910156 -1.03125 0.921875 -1.03125 C 0.941406 -1.03125 0.953125 -1.023438 0.953125 -1.015625 C 0.960938 -1.015625 0.96875 -1.007812 0.96875 -1 C 0.96875 -0.988281 0.960938 -0.976562 0.953125 -0.96875 Z M 0.609375 0 "/></g></g></g><g fill="#000000" fill-opacity="1"><g transform="translate(36.180235, 20.970084)"><g/></g></g><g fill="#000000" fill-opacity="1"><g transform="translate(36.682379, 20.970084)"><g><path d="M 1.234375 -0.0625 C 1.242188 -0.0507812 1.25 -0.0390625 1.25 -0.03125 C 1.25 -0.0195312 1.242188 -0.0078125 1.234375 0 C 1.234375 0 1.222656 0 1.203125 0 C 1.191406 0 1.175781 0 1.15625 0 C 1.132812 0 1.113281 0 1.09375 0 C 1.082031 0 1.070312 0 1.0625 0 C 1.0625 0 1.054688 0 1.046875 0 C 1.046875 -0.0078125 1.046875 -0.0195312 1.046875 -0.03125 L 0.921875 -0.375 L 0.34375 -0.375 L 0.234375 -0.03125 C 0.222656 -0.0195312 0.21875 -0.0078125 0.21875 0 C 0.21875 0 0.210938 0 0.203125 0 C 0.191406 0 0.179688 0 0.171875 0 C 0.160156 0 0.144531 0 0.125 0 C 0.101562 0 0.0820312 0 0.0625 0 C 0.0507812 0 0.0390625 0 0.03125 0 C 0.03125 -0.0078125 0.03125 -0.0195312 0.03125 -0.03125 C 0.03125 -0.0390625 0.0351562 -0.0507812 0.046875 -0.0625 L 0.515625 -1.375 C 0.523438 -1.382812 0.535156 -1.390625 0.546875 -1.390625 C 0.554688 -1.398438 0.566406 -1.40625 0.578125 -1.40625 C 0.597656 -1.40625 0.617188 -1.40625 0.640625 -1.40625 C 0.660156 -1.40625 0.675781 -1.40625 0.6875 -1.40625 C 0.707031 -1.40625 0.722656 -1.398438 0.734375 -1.390625 C 0.742188 -1.390625 0.75 -1.382812 0.75 -1.375 C 0.757812 -1.375 0.765625 -1.375 0.765625 -1.375 Z M 0.625 -1.21875 L 0.390625 -0.515625 L 0.875 -0.515625 Z M 0.625 -1.21875 "/></g></g></g><g fill="#000000" fill-opacity="1"><g transform="translate(37.967562, 20.970084)"><g><path d="M 0.734375 -0.9375 C 0.734375 -0.925781 0.734375 -0.910156 0.734375 -0.890625 C 0.734375 -0.878906 0.734375 -0.867188 0.734375 -0.859375 C 0.734375 -0.859375 0.726562 -0.859375 0.71875 -0.859375 C 0.71875 -0.859375 0.710938 -0.859375 0.703125 -0.859375 C 0.703125 -0.859375 0.695312 -0.859375 0.6875 -0.859375 C 0.675781 -0.859375 0.664062 -0.859375 0.65625 -0.859375 C 0.644531 -0.867188 0.632812 -0.875 0.625 -0.875 C 0.613281 -0.875 0.597656 -0.875 0.578125 -0.875 C 0.566406 -0.875 0.550781 -0.867188 0.53125 -0.859375 C 0.507812 -0.859375 0.488281 -0.847656 0.46875 -0.828125 C 0.445312 -0.816406 0.425781 -0.796875 0.40625 -0.765625 C 0.382812 -0.742188 0.363281 -0.710938 0.34375 -0.671875 L 0.34375 -0.03125 C 0.34375 -0.0195312 0.335938 -0.0078125 0.328125 0 C 0.328125 0 0.320312 0 0.3125 0 C 0.3125 0 0.304688 0 0.296875 0 C 0.285156 0 0.269531 0 0.25 0 C 0.238281 0 0.222656 0 0.203125 0 C 0.191406 0 0.179688 0 0.171875 0 C 0.171875 -0.0078125 0.171875 -0.0195312 0.171875 -0.03125 L 0.171875 -1 C 0.171875 -1.007812 0.171875 -1.015625 0.171875 -1.015625 C 0.179688 -1.023438 0.191406 -1.03125 0.203125 -1.03125 C 0.210938 -1.03125 0.226562 -1.03125 0.25 -1.03125 C 0.257812 -1.03125 0.269531 -1.03125 0.28125 -1.03125 C 0.289062 -1.03125 0.296875 -1.023438 0.296875 -1.015625 C 0.304688 -1.015625 0.3125 -1.015625 0.3125 -1.015625 C 0.320312 -1.015625 0.328125 -1.007812 0.328125 -1 L 0.328125 -0.859375 C 0.359375 -0.898438 0.382812 -0.929688 0.40625 -0.953125 C 0.425781 -0.984375 0.445312 -1.003906 0.46875 -1.015625 C 0.488281 -1.023438 0.507812 -1.03125 0.53125 -1.03125 C 0.550781 -1.039062 0.570312 -1.046875 0.59375 -1.046875 C 0.601562 -1.046875 0.613281 -1.046875 0.625 -1.046875 C 0.632812 -1.046875 0.644531 -1.039062 0.65625 -1.03125 C 0.675781 -1.03125 0.691406 -1.03125 0.703125 -1.03125 C 0.710938 -1.03125 0.71875 -1.023438 0.71875 -1.015625 C 0.726562 -1.015625 0.734375 -1.007812 0.734375 -1 C 0.734375 -1 0.734375 -0.992188 0.734375 -0.984375 C 0.734375 -0.972656 0.734375 -0.957031 0.734375 -0.9375 Z M 0.734375 -0.9375 "/></g></g></g><g fill="#000000" fill-opacity="1"><g transform="translate(38.741926, 20.970084)"><g><path d="M 1 -0.03125 C 1 -0.0195312 1 -0.0078125 1 0 C 1 0 0.992188 0 0.984375 0 C 0.984375 0 0.972656 0 0.953125 0 C 0.941406 0 0.929688 0 0.921875 0 C 0.898438 0 0.882812 0 0.875 0 C 0.863281 0 0.851562 0 0.84375 0 C 0.832031 0 0.828125 0 0.828125 0 C 0.828125 -0.0078125 0.828125 -0.0195312 0.828125 -0.03125 L 0.828125 -0.59375 C 0.828125 -0.65625 0.820312 -0.703125 0.8125 -0.734375 C 0.800781 -0.765625 0.785156 -0.789062 0.765625 -0.8125 C 0.753906 -0.84375 0.734375 -0.863281 0.703125 -0.875 C 0.679688 -0.882812 0.65625 -0.890625 0.625 -0.890625 C 0.570312 -0.890625 0.523438 -0.875 0.484375 -0.84375 C 0.441406 -0.8125 0.394531 -0.765625 0.34375 -0.703125 L 0.34375 -0.03125 C 0.34375 -0.0195312 0.335938 -0.0078125 0.328125 0 C 0.328125 0 0.320312 0 0.3125 0 C 0.3125 0 0.304688 0 0.296875 0 C 0.285156 0 0.269531 0 0.25 0 C 0.238281 0 0.222656 0 0.203125 0 C 0.191406 0 0.179688 0 0.171875 0 C 0.171875 -0.0078125 0.171875 -0.0195312 0.171875 -0.03125 L 0.171875 -1.46875 C 0.171875 -1.476562 0.171875 -1.484375 0.171875 -1.484375 C 0.171875 -1.492188 0.171875 -1.5 0.171875 -1.5 C 0.179688 -1.5 0.191406 -1.5 0.203125 -1.5 C 0.222656 -1.507812 0.238281 -1.515625 0.25 -1.515625 C 0.269531 -1.515625 0.285156 -1.507812 0.296875 -1.5 C 0.304688 -1.5 0.3125 -1.5 0.3125 -1.5 C 0.320312 -1.5 0.328125 -1.492188 0.328125 -1.484375 C 0.335938 -1.484375 0.34375 -1.476562 0.34375 -1.46875 L 0.34375 -0.890625 C 0.394531 -0.941406 0.445312 -0.976562 0.5 -1 C 0.550781 -1.03125 0.601562 -1.046875 0.65625 -1.046875 C 0.71875 -1.046875 0.769531 -1.035156 0.8125 -1.015625 C 0.863281 -0.992188 0.898438 -0.960938 0.921875 -0.921875 C 0.953125 -0.890625 0.972656 -0.847656 0.984375 -0.796875 C 0.992188 -0.742188 1 -0.6875 1 -0.625 Z M 1 -0.03125 "/></g></g></g><g fill="#000000" fill-opacity="1"><g transform="translate(39.908894, 20.970084)"><g><path d="M 0.90625 -0.03125 C 0.90625 -0.0195312 0.898438 -0.0078125 0.890625 0 C 0.890625 0 0.882812 0 0.875 0 C 0.863281 0 0.847656 0 0.828125 0 C 0.804688 0 0.789062 0 0.78125 0 C 0.769531 0 0.757812 0 0.75 0 C 0.75 -0.0078125 0.75 -0.0195312 0.75 -0.03125 L 0.75 -0.125 C 0.707031 -0.0820312 0.660156 -0.046875 0.609375 -0.015625 C 0.554688 0.00390625 0.5 0.015625 0.4375 0.015625 C 0.382812 0.015625 0.335938 0.0078125 0.296875 0 C 0.253906 -0.0078125 0.21875 -0.0234375 0.1875 -0.046875 C 0.15625 -0.078125 0.128906 -0.109375 0.109375 -0.140625 C 0.0976562 -0.179688 0.09375 -0.226562 0.09375 -0.28125 C 0.09375 -0.332031 0.101562 -0.378906 0.125 -0.421875 C 0.15625 -0.460938 0.191406 -0.492188 0.234375 -0.515625 C 0.273438 -0.546875 0.320312 -0.566406 0.375 -0.578125 C 0.4375 -0.585938 0.507812 -0.59375 0.59375 -0.59375 L 0.71875 -0.59375 L 0.71875 -0.671875 C 0.71875 -0.710938 0.710938 -0.742188 0.703125 -0.765625 C 0.703125 -0.796875 0.691406 -0.820312 0.671875 -0.84375 C 0.648438 -0.863281 0.625 -0.878906 0.59375 -0.890625 C 0.570312 -0.898438 0.539062 -0.90625 0.5 -0.90625 C 0.457031 -0.90625 0.414062 -0.898438 0.375 -0.890625 C 0.34375 -0.878906 0.3125 -0.867188 0.28125 -0.859375 C 0.257812 -0.847656 0.238281 -0.835938 0.21875 -0.828125 C 0.207031 -0.816406 0.195312 -0.8125 0.1875 -0.8125 C 0.175781 -0.8125 0.164062 -0.8125 0.15625 -0.8125 C 0.15625 -0.820312 0.148438 -0.832031 0.140625 -0.84375 C 0.140625 -0.851562 0.140625 -0.863281 0.140625 -0.875 C 0.140625 -0.894531 0.140625 -0.910156 0.140625 -0.921875 C 0.148438 -0.929688 0.160156 -0.941406 0.171875 -0.953125 C 0.179688 -0.960938 0.195312 -0.972656 0.21875 -0.984375 C 0.238281 -0.992188 0.265625 -1.003906 0.296875 -1.015625 C 0.328125 -1.023438 0.359375 -1.03125 0.390625 -1.03125 C 0.429688 -1.039062 0.472656 -1.046875 0.515625 -1.046875 C 0.585938 -1.046875 0.644531 -1.035156 0.6875 -1.015625 C 0.738281 -1.003906 0.78125 -0.984375 0.8125 -0.953125 C 0.84375 -0.921875 0.863281 -0.882812 0.875 -0.84375 C 0.894531 -0.800781 0.90625 -0.75 0.90625 -0.6875 Z M 0.71875 -0.46875 L 0.5625 -0.46875 C 0.519531 -0.46875 0.476562 -0.460938 0.4375 -0.453125 C 0.40625 -0.453125 0.375 -0.441406 0.34375 -0.421875 C 0.320312 -0.398438 0.304688 -0.378906 0.296875 -0.359375 C 0.285156 -0.335938 0.28125 -0.3125 0.28125 -0.28125 C 0.28125 -0.226562 0.296875 -0.1875 0.328125 -0.15625 C 0.359375 -0.132812 0.40625 -0.125 0.46875 -0.125 C 0.507812 -0.125 0.550781 -0.132812 0.59375 -0.15625 C 0.632812 -0.175781 0.675781 -0.210938 0.71875 -0.265625 Z M 0.71875 -0.46875 "/></g></g></g><g fill="#000000" fill-opacity="1"><g transform="translate(40.972831, 20.970084)"><g><path d="M 1.609375 -0.03125 C 1.609375 -0.0195312 1.609375 -0.0078125 1.609375 0 C 1.609375 0 1.601562 0 1.59375 0 C 1.582031 0 1.570312 0 1.5625 0 C 1.550781 0 1.535156 0 1.515625 0 C 1.503906 0 1.492188 0 1.484375 0 C 1.472656 0 1.460938 0 1.453125 0 C 1.441406 0 1.4375 0 1.4375 0 C 1.4375 -0.0078125 1.4375 -0.0195312 1.4375 -0.03125 L 1.4375 -0.625 C 1.4375 -0.664062 1.429688 -0.703125 1.421875 -0.734375 C 1.410156 -0.765625 1.394531 -0.789062 1.375 -0.8125 C 1.363281 -0.84375 1.347656 -0.863281 1.328125 -0.875 C 1.304688 -0.882812 1.273438 -0.890625 1.234375 -0.890625 C 1.191406 -0.890625 1.148438 -0.875 1.109375 -0.84375 C 1.066406 -0.8125 1.023438 -0.765625 0.984375 -0.703125 L 0.984375 -0.03125 C 0.984375 -0.0195312 0.976562 -0.0078125 0.96875 0 C 0.96875 0 0.960938 0 0.953125 0 C 0.953125 0 0.945312 0 0.9375 0 C 0.925781 0 0.910156 0 0.890625 0 C 0.867188 0 0.851562 0 0.84375 0 C 0.832031 0 0.820312 0 0.8125 0 C 0.8125 0 0.804688 0 0.796875 0 C 0.796875 -0.0078125 0.796875 -0.0195312 0.796875 -0.03125 L 0.796875 -0.625 C 0.796875 -0.664062 0.789062 -0.703125 0.78125 -0.734375 C 0.78125 -0.765625 0.769531 -0.789062 0.75 -0.8125 C 0.738281 -0.84375 0.71875 -0.863281 0.6875 -0.875 C 0.664062 -0.882812 0.640625 -0.890625 0.609375 -0.890625 C 0.566406 -0.890625 0.523438 -0.875 0.484375 -0.84375 C 0.441406 -0.8125 0.394531 -0.765625 0.34375 -0.703125 L 0.34375 -0.03125 C 0.34375 -0.0195312 0.335938 -0.0078125 0.328125 0 C 0.328125 0 0.320312 0 0.3125 0 C 0.3125 0 0.304688 0 0.296875 0 C 0.285156 0 0.269531 0 0.25 0 C 0.238281 0 0.222656 0 0.203125 0 C 0.191406 0 0.179688 0 0.171875 0 C 0.171875 -0.0078125 0.171875 -0.0195312 0.171875 -0.03125 L 0.171875 -1 C 0.171875 -1.007812 0.171875 -1.015625 0.171875 -1.015625 C 0.179688 -1.023438 0.191406 -1.03125 0.203125 -1.03125 C 0.210938 -1.03125 0.226562 -1.03125 0.25 -1.03125 C 0.257812 -1.03125 0.269531 -1.03125 0.28125 -1.03125 C 0.289062 -1.03125 0.296875 -1.023438 0.296875 -1.015625 C 0.304688 -1.015625 0.3125 -1.015625 0.3125 -1.015625 C 0.320312 -1.015625 0.328125 -1.007812 0.328125 -1 L 0.328125 -0.875 C 0.378906 -0.9375 0.429688 -0.976562 0.484375 -1 C 0.535156 -1.03125 0.585938 -1.046875 0.640625 -1.046875 C 0.679688 -1.046875 0.71875 -1.039062 0.75 -1.03125 C 0.78125 -1.019531 0.804688 -1.003906 0.828125 -0.984375 C 0.859375 -0.972656 0.878906 -0.957031 0.890625 -0.9375 C 0.910156 -0.914062 0.925781 -0.890625 0.9375 -0.859375 C 0.976562 -0.890625 1.007812 -0.914062 1.03125 -0.9375 C 1.0625 -0.96875 1.085938 -0.988281 1.109375 -1 C 1.140625 -1.019531 1.164062 -1.03125 1.1875 -1.03125 C 1.21875 -1.039062 1.25 -1.046875 1.28125 -1.046875 C 1.34375 -1.046875 1.394531 -1.035156 1.4375 -1.015625 C 1.476562 -0.992188 1.507812 -0.960938 1.53125 -0.921875 C 1.5625 -0.890625 1.582031 -0.847656 1.59375 -0.796875 C 1.601562 -0.742188 1.609375 -0.691406 1.609375 -0.640625 Z M 1.609375 -0.03125 "/></g></g></g><g fill="#000000" fill-opacity="1"><g transform="translate(42.747143, 20.970084)"><g/></g></g><g fill="#000000" fill-opacity="1"><g transform="translate(43.249287, 20.970084)"><g><path d="M 0.9375 -0.390625 C 0.9375 -0.328125 0.921875 -0.269531 0.890625 -0.21875 C 0.867188 -0.164062 0.835938 -0.117188 0.796875 -0.078125 C 0.753906 -0.046875 0.703125 -0.0195312 0.640625 0 C 0.585938 0.0078125 0.53125 0.015625 0.46875 0.015625 C 0.414062 0.015625 0.367188 0.0078125 0.328125 0 C 0.285156 0 0.25 -0.00390625 0.21875 -0.015625 C 0.1875 -0.0234375 0.160156 -0.0351562 0.140625 -0.046875 C 0.117188 -0.0664062 0.101562 -0.078125 0.09375 -0.078125 C 0.09375 -0.0859375 0.0859375 -0.0976562 0.078125 -0.109375 C 0.078125 -0.128906 0.078125 -0.148438 0.078125 -0.171875 C 0.078125 -0.191406 0.078125 -0.207031 0.078125 -0.21875 C 0.078125 -0.226562 0.078125 -0.234375 0.078125 -0.234375 C 0.0859375 -0.242188 0.09375 -0.25 0.09375 -0.25 C 0.101562 -0.25 0.109375 -0.25 0.109375 -0.25 C 0.117188 -0.25 0.132812 -0.242188 0.15625 -0.234375 C 0.175781 -0.222656 0.195312 -0.207031 0.21875 -0.1875 C 0.25 -0.175781 0.285156 -0.164062 0.328125 -0.15625 C 0.367188 -0.144531 0.414062 -0.140625 0.46875 -0.140625 C 0.507812 -0.140625 0.546875 -0.144531 0.578125 -0.15625 C 0.609375 -0.164062 0.632812 -0.179688 0.65625 -0.203125 C 0.6875 -0.222656 0.707031 -0.242188 0.71875 -0.265625 C 0.738281 -0.296875 0.75 -0.332031 0.75 -0.375 C 0.75 -0.414062 0.738281 -0.445312 0.71875 -0.46875 C 0.695312 -0.5 0.671875 -0.523438 0.640625 -0.546875 C 0.609375 -0.566406 0.570312 -0.585938 0.53125 -0.609375 C 0.5 -0.628906 0.460938 -0.644531 0.421875 -0.65625 C 0.390625 -0.675781 0.351562 -0.695312 0.3125 -0.71875 C 0.269531 -0.738281 0.234375 -0.765625 0.203125 -0.796875 C 0.179688 -0.828125 0.160156 -0.863281 0.140625 -0.90625 C 0.117188 -0.945312 0.109375 -1 0.109375 -1.0625 C 0.109375 -1.113281 0.117188 -1.160156 0.140625 -1.203125 C 0.160156 -1.253906 0.191406 -1.296875 0.234375 -1.328125 C 0.273438 -1.359375 0.320312 -1.378906 0.375 -1.390625 C 0.425781 -1.410156 0.476562 -1.421875 0.53125 -1.421875 C 0.5625 -1.421875 0.59375 -1.414062 0.625 -1.40625 C 0.65625 -1.40625 0.6875 -1.398438 0.71875 -1.390625 C 0.75 -1.378906 0.773438 -1.367188 0.796875 -1.359375 C 0.816406 -1.347656 0.828125 -1.335938 0.828125 -1.328125 C 0.835938 -1.328125 0.84375 -1.320312 0.84375 -1.3125 C 0.851562 -1.3125 0.859375 -1.304688 0.859375 -1.296875 C 0.859375 -1.296875 0.859375 -1.289062 0.859375 -1.28125 C 0.859375 -1.269531 0.859375 -1.257812 0.859375 -1.25 C 0.859375 -1.238281 0.859375 -1.226562 0.859375 -1.21875 C 0.859375 -1.207031 0.851562 -1.195312 0.84375 -1.1875 C 0.84375 -1.175781 0.84375 -1.171875 0.84375 -1.171875 C 0.84375 -1.171875 0.835938 -1.171875 0.828125 -1.171875 C 0.816406 -1.171875 0.800781 -1.175781 0.78125 -1.1875 C 0.769531 -1.195312 0.75 -1.207031 0.71875 -1.21875 C 0.695312 -1.226562 0.671875 -1.238281 0.640625 -1.25 C 0.609375 -1.257812 0.570312 -1.265625 0.53125 -1.265625 C 0.488281 -1.265625 0.453125 -1.257812 0.421875 -1.25 C 0.398438 -1.238281 0.378906 -1.222656 0.359375 -1.203125 C 0.335938 -1.191406 0.320312 -1.171875 0.3125 -1.140625 C 0.300781 -1.117188 0.296875 -1.097656 0.296875 -1.078125 C 0.296875 -1.035156 0.304688 -1 0.328125 -0.96875 C 0.347656 -0.9375 0.367188 -0.910156 0.390625 -0.890625 C 0.421875 -0.867188 0.457031 -0.847656 0.5 -0.828125 C 0.539062 -0.816406 0.578125 -0.800781 0.609375 -0.78125 C 0.648438 -0.757812 0.691406 -0.738281 0.734375 -0.71875 C 0.773438 -0.695312 0.8125 -0.671875 0.84375 -0.640625 C 0.875 -0.609375 0.894531 -0.570312 0.90625 -0.53125 C 0.925781 -0.5 0.9375 -0.453125 0.9375 -0.390625 Z M 0.9375 -0.390625 "/></g></g></g><g fill="#000000" fill-opacity="1"><g transform="translate(44.269842, 20.970084)"><g><path d="M 1 -0.03125 C 1 -0.0195312 1 -0.0078125 1 0 C 1 0 0.992188 0 0.984375 0 C 0.984375 0 0.972656 0 0.953125 0 C 0.941406 0 0.929688 0 0.921875 0 C 0.898438 0 0.882812 0 0.875 0 C 0.863281 0 0.851562 0 0.84375 0 C 0.832031 0 0.828125 0 0.828125 0 C 0.828125 -0.0078125 0.828125 -0.0195312 0.828125 -0.03125 L 0.828125 -0.59375 C 0.828125 -0.65625 0.820312 -0.703125 0.8125 -0.734375 C 0.800781 -0.765625 0.785156 -0.789062 0.765625 -0.8125 C 0.753906 -0.84375 0.734375 -0.863281 0.703125 -0.875 C 0.679688 -0.882812 0.65625 -0.890625 0.625 -0.890625 C 0.570312 -0.890625 0.523438 -0.875 0.484375 -0.84375 C 0.441406 -0.8125 0.394531 -0.765625 0.34375 -0.703125 L 0.34375 -0.03125 C 0.34375 -0.0195312 0.335938 -0.0078125 0.328125 0 C 0.328125 0 0.320312 0 0.3125 0 C 0.3125 0 0.304688 0 0.296875 0 C 0.285156 0 0.269531 0 0.25 0 C 0.238281 0 0.222656 0 0.203125 0 C 0.191406 0 0.179688 0 0.171875 0 C 0.171875 -0.0078125 0.171875 -0.0195312 0.171875 -0.03125 L 0.171875 -1.46875 C 0.171875 -1.476562 0.171875 -1.484375 0.171875 -1.484375 C 0.171875 -1.492188 0.171875 -1.5 0.171875 -1.5 C 0.179688 -1.5 0.191406 -1.5 0.203125 -1.5 C 0.222656 -1.507812 0.238281 -1.515625 0.25 -1.515625 C 0.269531 -1.515625 0.285156 -1.507812 0.296875 -1.5 C 0.304688 -1.5 0.3125 -1.5 0.3125 -1.5 C 0.320312 -1.5 0.328125 -1.492188 0.328125 -1.484375 C 0.335938 -1.484375 0.34375 -1.476562 0.34375 -1.46875 L 0.34375 -0.890625 C 0.394531 -0.941406 0.445312 -0.976562 0.5 -1 C 0.550781 -1.03125 0.601562 -1.046875 0.65625 -1.046875 C 0.71875 -1.046875 0.769531 -1.035156 0.8125 -1.015625 C 0.863281 -0.992188 0.898438 -0.960938 0.921875 -0.921875 C 0.953125 -0.890625 0.972656 -0.847656 0.984375 -0.796875 C 0.992188 -0.742188 1 -0.6875 1 -0.625 Z M 1 -0.03125 "/></g></g></g><g fill="#000000" fill-opacity="1"><g transform="translate(45.43681, 20.970084)"><g><path d="M 0.90625 -0.03125 C 0.90625 -0.0195312 0.898438 -0.0078125 0.890625 0 C 0.890625 0 0.882812 0 0.875 0 C 0.863281 0 0.847656 0 0.828125 0 C 0.804688 0 0.789062 0 0.78125 0 C 0.769531 0 0.757812 0 0.75 0 C 0.75 -0.0078125 0.75 -0.0195312 0.75 -0.03125 L 0.75 -0.125 C 0.707031 -0.0820312 0.660156 -0.046875 0.609375 -0.015625 C 0.554688 0.00390625 0.5 0.015625 0.4375 0.015625 C 0.382812 0.015625 0.335938 0.0078125 0.296875 0 C 0.253906 -0.0078125 0.21875 -0.0234375 0.1875 -0.046875 C 0.15625 -0.078125 0.128906 -0.109375 0.109375 -0.140625 C 0.0976562 -0.179688 0.09375 -0.226562 0.09375 -0.28125 C 0.09375 -0.332031 0.101562 -0.378906 0.125 -0.421875 C 0.15625 -0.460938 0.191406 -0.492188 0.234375 -0.515625 C 0.273438 -0.546875 0.320312 -0.566406 0.375 -0.578125 C 0.4375 -0.585938 0.507812 -0.59375 0.59375 -0.59375 L 0.71875 -0.59375 L 0.71875 -0.671875 C 0.71875 -0.710938 0.710938 -0.742188 0.703125 -0.765625 C 0.703125 -0.796875 0.691406 -0.820312 0.671875 -0.84375 C 0.648438 -0.863281 0.625 -0.878906 0.59375 -0.890625 C 0.570312 -0.898438 0.539062 -0.90625 0.5 -0.90625 C 0.457031 -0.90625 0.414062 -0.898438 0.375 -0.890625 C 0.34375 -0.878906 0.3125 -0.867188 0.28125 -0.859375 C 0.257812 -0.847656 0.238281 -0.835938 0.21875 -0.828125 C 0.207031 -0.816406 0.195312 -0.8125 0.1875 -0.8125 C 0.175781 -0.8125 0.164062 -0.8125 0.15625 -0.8125 C 0.15625 -0.820312 0.148438 -0.832031 0.140625 -0.84375 C 0.140625 -0.851562 0.140625 -0.863281 0.140625 -0.875 C 0.140625 -0.894531 0.140625 -0.910156 0.140625 -0.921875 C 0.148438 -0.929688 0.160156 -0.941406 0.171875 -0.953125 C 0.179688 -0.960938 0.195312 -0.972656 0.21875 -0.984375 C 0.238281 -0.992188 0.265625 -1.003906 0.296875 -1.015625 C 0.328125 -1.023438 0.359375 -1.03125 0.390625 -1.03125 C 0.429688 -1.039062 0.472656 -1.046875 0.515625 -1.046875 C 0.585938 -1.046875 0.644531 -1.035156 0.6875 -1.015625 C 0.738281 -1.003906 0.78125 -0.984375 0.8125 -0.953125 C 0.84375 -0.921875 0.863281 -0.882812 0.875 -0.84375 C 0.894531 -0.800781 0.90625 -0.75 0.90625 -0.6875 Z M 0.71875 -0.46875 L 0.5625 -0.46875 C 0.519531 -0.46875 0.476562 -0.460938 0.4375 -0.453125 C 0.40625 -0.453125 0.375 -0.441406 0.34375 -0.421875 C 0.320312 -0.398438 0.304688 -0.378906 0.296875 -0.359375 C 0.285156 -0.335938 0.28125 -0.3125 0.28125 -0.28125 C 0.28125 -0.226562 0.296875 -0.1875 0.328125 -0.15625 C 0.359375 -0.132812 0.40625 -0.125 0.46875 -0.125 C 0.507812 -0.125 0.550781 -0.132812 0.59375 -0.15625 C 0.632812 -0.175781 0.675781 -0.210938 0.71875 -0.265625 Z M 0.71875 -0.46875 "/></g></g></g><g fill="#000000" fill-opacity="1"><g transform="translate(46.500747, 20.970084)"><g><path d="M 0.734375 -0.9375 C 0.734375 -0.925781 0.734375 -0.910156 0.734375 -0.890625 C 0.734375 -0.878906 0.734375 -0.867188 0.734375 -0.859375 C 0.734375 -0.859375 0.726562 -0.859375 0.71875 -0.859375 C 0.71875 -0.859375 0.710938 -0.859375 0.703125 -0.859375 C 0.703125 -0.859375 0.695312 -0.859375 0.6875 -0.859375 C 0.675781 -0.859375 0.664062 -0.859375 0.65625 -0.859375 C 0.644531 -0.867188 0.632812 -0.875 0.625 -0.875 C 0.613281 -0.875 0.597656 -0.875 0.578125 -0.875 C 0.566406 -0.875 0.550781 -0.867188 0.53125 -0.859375 C 0.507812 -0.859375 0.488281 -0.847656 0.46875 -0.828125 C 0.445312 -0.816406 0.425781 -0.796875 0.40625 -0.765625 C 0.382812 -0.742188 0.363281 -0.710938 0.34375 -0.671875 L 0.34375 -0.03125 C 0.34375 -0.0195312 0.335938 -0.0078125 0.328125 0 C 0.328125 0 0.320312 0 0.3125 0 C 0.3125 0 0.304688 0 0.296875 0 C 0.285156 0 0.269531 0 0.25 0 C 0.238281 0 0.222656 0 0.203125 0 C 0.191406 0 0.179688 0 0.171875 0 C 0.171875 -0.0078125 0.171875 -0.0195312 0.171875 -0.03125 L 0.171875 -1 C 0.171875 -1.007812 0.171875 -1.015625 0.171875 -1.015625 C 0.179688 -1.023438 0.191406 -1.03125 0.203125 -1.03125 C 0.210938 -1.03125 0.226562 -1.03125 0.25 -1.03125 C 0.257812 -1.03125 0.269531 -1.03125 0.28125 -1.03125 C 0.289062 -1.03125 0.296875 -1.023438 0.296875 -1.015625 C 0.304688 -1.015625 0.3125 -1.015625 0.3125 -1.015625 C 0.320312 -1.015625 0.328125 -1.007812 0.328125 -1 L 0.328125 -0.859375 C 0.359375 -0.898438 0.382812 -0.929688 0.40625 -0.953125 C 0.425781 -0.984375 0.445312 -1.003906 0.46875 -1.015625 C 0.488281 -1.023438 0.507812 -1.03125 0.53125 -1.03125 C 0.550781 -1.039062 0.570312 -1.046875 0.59375 -1.046875 C 0.601562 -1.046875 0.613281 -1.046875 0.625 -1.046875 C 0.632812 -1.046875 0.644531 -1.039062 0.65625 -1.03125 C 0.675781 -1.03125 0.691406 -1.03125 0.703125 -1.03125 C 0.710938 -1.03125 0.71875 -1.023438 0.71875 -1.015625 C 0.726562 -1.015625 0.734375 -1.007812 0.734375 -1 C 0.734375 -1 0.734375 -0.992188 0.734375 -0.984375 C 0.734375 -0.972656 0.734375 -0.957031 0.734375 -0.9375 Z M 0.734375 -0.9375 "/></g></g></g><g fill="#000000" fill-opacity="1"><g transform="translate(47.27511, 20.970084)"><g><path d="M 1 -0.5625 C 1 -0.53125 0.988281 -0.507812 0.96875 -0.5 C 0.957031 -0.488281 0.941406 -0.484375 0.921875 -0.484375 L 0.296875 -0.484375 C 0.296875 -0.421875 0.300781 -0.367188 0.3125 -0.328125 C 0.320312 -0.285156 0.335938 -0.25 0.359375 -0.21875 C 0.378906 -0.1875 0.410156 -0.160156 0.453125 -0.140625 C 0.492188 -0.128906 0.546875 -0.125 0.609375 -0.125 C 0.648438 -0.125 0.6875 -0.125 0.71875 -0.125 C 0.757812 -0.132812 0.789062 -0.144531 0.8125 -0.15625 C 0.84375 -0.164062 0.867188 -0.175781 0.890625 -0.1875 C 0.910156 -0.195312 0.921875 -0.203125 0.921875 -0.203125 C 0.929688 -0.203125 0.9375 -0.195312 0.9375 -0.1875 C 0.945312 -0.1875 0.953125 -0.179688 0.953125 -0.171875 C 0.953125 -0.171875 0.953125 -0.164062 0.953125 -0.15625 C 0.953125 -0.144531 0.953125 -0.132812 0.953125 -0.125 C 0.953125 -0.113281 0.953125 -0.101562 0.953125 -0.09375 C 0.953125 -0.09375 0.953125 -0.0859375 0.953125 -0.078125 C 0.953125 -0.078125 0.945312 -0.0703125 0.9375 -0.0625 C 0.9375 -0.0625 0.9375 -0.0546875 0.9375 -0.046875 C 0.9375 -0.046875 0.925781 -0.0390625 0.90625 -0.03125 C 0.882812 -0.03125 0.859375 -0.0234375 0.828125 -0.015625 C 0.796875 -0.00390625 0.757812 0 0.71875 0 C 0.675781 0.0078125 0.632812 0.015625 0.59375 0.015625 C 0.507812 0.015625 0.4375 0.00390625 0.375 -0.015625 C 0.3125 -0.0351562 0.257812 -0.0664062 0.21875 -0.109375 C 0.175781 -0.148438 0.144531 -0.203125 0.125 -0.265625 C 0.101562 -0.335938 0.09375 -0.421875 0.09375 -0.515625 C 0.09375 -0.597656 0.101562 -0.671875 0.125 -0.734375 C 0.15625 -0.804688 0.1875 -0.863281 0.21875 -0.90625 C 0.257812 -0.945312 0.3125 -0.976562 0.375 -1 C 0.4375 -1.03125 0.5 -1.046875 0.5625 -1.046875 C 0.644531 -1.046875 0.710938 -1.035156 0.765625 -1.015625 C 0.816406 -0.992188 0.859375 -0.960938 0.890625 -0.921875 C 0.929688 -0.878906 0.957031 -0.828125 0.96875 -0.765625 C 0.988281 -0.710938 1 -0.65625 1 -0.59375 Z M 0.8125 -0.609375 C 0.820312 -0.703125 0.800781 -0.773438 0.75 -0.828125 C 0.707031 -0.878906 0.644531 -0.90625 0.5625 -0.90625 C 0.519531 -0.90625 0.476562 -0.894531 0.4375 -0.875 C 0.40625 -0.863281 0.378906 -0.84375 0.359375 -0.8125 C 0.335938 -0.789062 0.320312 -0.757812 0.3125 -0.71875 C 0.300781 -0.6875 0.296875 -0.648438 0.296875 -0.609375 Z M 0.8125 -0.609375 "/></g></g></g></svg>