<svg width="12" height="12" viewBox="0 0 12 12" fill="none" xmlns="http://www.w3.org/2000/svg">
<path d="M9.50335 1.5C9.73976 1.50165 9.97242 1.55915 10.1824 1.66782C10.3923 1.77649 10.5736 1.93324 10.7115 2.1253C10.8493 2.31736 10.9398 2.53928 10.9756 2.77297C11.0114 3.00666 10.9914 3.2455 10.9173 3.47L10.8834 3.5625L10.8524 3.6255L7.30735 9.742C7.18223 9.96839 7.0007 10.1586 6.78038 10.2941C6.56006 10.4296 6.30844 10.5059 6.04995 10.5154C5.79146 10.525 5.5349 10.4675 5.30517 10.3487C5.07544 10.2298 4.88035 10.0535 4.73885 9.837L4.68735 9.7505L1.13735 3.6255L1.10685 3.563C1.01681 3.34132 0.981101 3.10131 1.00271 2.86302C1.02433 2.62473 1.10263 2.39506 1.23109 2.1932C1.35955 1.99133 1.53443 1.82313 1.74115 1.70263C1.94786 1.58212 2.1804 1.51282 2.41935 1.5005L2.44835 1.5L2.47835 1.501L2.49985 1.5H9.50335Z" fill="#E11D1D"/>
</svg>
