<svg width="12" height="12" viewBox="0 0 12 12" fill="none" xmlns="http://www.w3.org/2000/svg">
<path d="M9.50335 10.5C9.73976 10.4984 9.97242 10.4409 10.1824 10.3322C10.3923 10.2235 10.5736 10.0668 10.7115 9.8747C10.8493 9.68264 10.9398 9.46072 10.9756 9.22703C11.0114 8.99334 10.9914 8.7545 10.9173 8.53L10.8834 8.4375L10.8524 8.3745L7.30735 2.258C7.18223 2.03161 7.0007 1.84142 6.78038 1.70591C6.56006 1.57039 6.30844 1.49415 6.04995 1.48459C5.79146 1.47503 5.5349 1.53247 5.30517 1.65134C5.07544 1.77022 4.88035 1.94647 4.73885 2.163L4.68735 2.2495L1.13735 8.3745L1.10685 8.437C1.01681 8.65868 0.981101 8.89869 1.00271 9.13698C1.02433 9.37527 1.10263 9.60494 1.23109 9.8068C1.35955 10.0087 1.53443 10.1769 1.74115 10.2974C1.94786 10.4179 2.1804 10.4872 2.41935 10.4995L2.44835 10.5L2.47835 10.499L2.49985 10.5H9.50335Z" fill="#078A42"/>
</svg>
