<svg width="49" height="50" viewBox="0 0 49 50" fill="none" xmlns="http://www.w3.org/2000/svg">
<g clip-path="url(#clip0_82_37)">
<rect width="49" height="50" rx="24.5" fill="url(#paint0_linear_82_37)"/>
<path d="M20.138 34.8123C21.5525 32.4124 24.8001 27.8121 32.5329 21.348C44.2014 11.5938 33.1886 2.67203 21.3577 7.42375C20.0921 7.93213 16.585 5.89698 13.3363 8.04102C11.2406 9.42409 12.0562 10.508 11.2402 11.5919C10.4242 12.6758 7.27827 12.612 6.58909 15.4265C6.18092 17.094 7.31045 18.8406 7.15937 20.0956C7.00829 21.3507 5.81589 22.482 5.759 24.1388C5.73438 24.8386 5.84509 25.5365 6.08482 26.1926C6.32456 26.8487 6.68861 27.4502 7.1562 27.9628C7.62378 28.4753 8.18574 28.8888 8.80996 29.1797C9.43418 29.4706 10.1085 29.6331 10.7943 29.658C10.7999 31.0415 11.3292 32.3692 12.2717 33.3636C13.2143 34.3581 14.497 34.9424 15.8518 34.9944C16.7205 35.0268 17.5833 34.8361 18.3611 34.4398C19.1328 35.1655 19.7952 35.3937 20.138 34.8123Z" fill="url(#paint1_linear_82_37)"/>
<path d="M23.0298 6.83332C21.0182 8.14999 18.5295 12.4683 19.6219 18.2652C19.8602 19.53 19.1155 19.9087 18.4785 18.3485C16.5566 13.6417 16.3338 9.39682 19.6219 7.36632C20.1935 7.01516 20.5202 7.29966 20.9286 7.26516C21.7052 7.19949 22.7509 6.63799 23.0298 6.83332Z" fill="url(#paint2_linear_82_37)"/>
<path d="M20.4168 32.3333C20.4168 30.8333 20.3668 23.4347 20.3693 23.3097C16.3335 23.9167 16.4151 16.0833 20.4985 18C21.3968 18.5833 23.9285 18 23.6835 13.1667C28.0935 18 33.2135 12.3627 33.6525 16.9563C34.2521 23.2288 33.6489 29.7932 29.8287 29.7937C29.4108 29.7885 28.9941 29.746 28.5835 29.6667V32.3333C28.5835 34 31.5235 34.8333 31.5235 34.8333C31.5235 34.8333 26.4451 39.7167 24.3368 39.6897C22.2285 39.6627 17.4768 34.8333 17.4768 34.8333C17.4768 34.8333 20.4168 34 20.4168 32.3333Z" fill="url(#paint3_linear_82_37)"/>
<g style="mix-blend-mode:multiply">
<path d="M28.5836 29.6658C26.5573 29.2073 24.6372 28.3527 22.9292 27.1493C22.9292 27.1493 24.3385 30.6648 28.5784 31.3318L28.5836 29.6658Z" fill="#FFDBC9"/>
</g>
<path d="M39.5268 39.8333C40.7117 42.5203 41.3234 50.6667 41.3234 50.6667H7.67676C7.67676 50.6667 8.28844 42.5203 9.47342 39.8333C10.5116 37.4795 17.3525 34.7768 19.3572 34C20.5148 35.3213 22.1736 36.1667 24.5001 36.1667C26.8266 36.1667 28.4854 35.3213 29.643 34C31.6477 34.7768 38.4886 37.4795 39.5268 39.8333Z" fill="url(#paint4_linear_82_37)"/>
</g>
<defs>
<linearGradient id="paint0_linear_82_37" x1="24.5" y1="50" x2="24.5" y2="0" gradientUnits="userSpaceOnUse">
<stop stop-color="#6660BE"/>
<stop offset="1" stop-color="#FFD2C2"/>
</linearGradient>
<linearGradient id="paint1_linear_82_37" x1="21.063" y1="35.1942" x2="22.1106" y2="5.89165" gradientUnits="userSpaceOnUse">
<stop stop-color="#6660BE"/>
<stop offset="1" stop-color="#6660BE"/>
</linearGradient>
<linearGradient id="paint2_linear_82_37" x1="20.0554" y1="6.79227" x2="20.0554" y2="19.3732" gradientUnits="userSpaceOnUse">
<stop stop-color="#1D0024"/>
<stop offset="1" stop-color="#100014"/>
</linearGradient>
<linearGradient id="paint3_linear_82_37" x1="25.6206" y1="13.1667" x2="25.6206" y2="39.6898" gradientUnits="userSpaceOnUse">
<stop stop-color="#FFE0CC"/>
<stop offset="1" stop-color="#FFEADB"/>
</linearGradient>
<linearGradient id="paint4_linear_82_37" x1="24.5001" y1="34" x2="24.5001" y2="50.6667" gradientUnits="userSpaceOnUse">
<stop stop-color="#130027"/>
<stop offset="1" stop-color="#130017"/>
</linearGradient>
<clipPath id="clip0_82_37">
<rect width="49" height="50" rx="24.5" fill="white"/>
</clipPath>
</defs>
</svg>
