<svg width="259" height="253" viewBox="0 0 259 253" fill="none" xmlns="http://www.w3.org/2000/svg">
<rect y="251.937" width="167.668" height="0.868747" fill="#D9D9D9"/>
<path d="M122.484 166.872C132.942 148.509 152.889 134.408 174.005 135.767C158.429 152.675 149.346 174.539 148.364 197.489C148.017 206.342 148.555 216.224 142.667 222.852C139.004 226.977 133.404 228.974 127.898 229.393C122.392 229.812 116.888 228.819 111.455 227.83L110.138 228.234C109.636 207.117 112.027 185.236 122.484 166.872Z" fill="#F0F0F0"/>
<path d="M174.037 136.209C158.422 143.713 145.107 156.246 136.934 171.53C135.167 174.835 133.662 178.341 133.006 182.047C132.349 185.755 132.808 189.285 134.077 192.807C135.237 196.027 136.797 199.187 137.152 202.632C137.527 206.264 136.189 209.659 133.779 212.354C130.831 215.651 126.873 217.695 122.932 219.558C118.556 221.628 113.978 223.708 110.879 227.57C110.503 228.038 109.798 227.429 110.173 226.962C115.565 220.242 124.795 218.979 131.196 213.566C134.182 211.04 136.424 207.601 136.283 203.571C136.159 200.046 134.553 196.787 133.351 193.537C132.088 190.124 131.458 186.693 131.911 183.054C132.374 179.333 133.744 175.761 135.419 172.426C139.196 164.904 144.365 157.999 150.286 152.03C157.091 145.168 165.021 139.52 173.735 135.328C174.274 135.069 174.572 135.951 174.037 136.209Z" fill="white"/>
<path d="M139.328 166.421C136.934 164.673 135.241 162.134 134.549 159.255C133.858 156.376 134.215 153.345 135.555 150.705C135.828 150.171 136.672 150.57 136.398 151.104C135.145 153.561 134.814 156.384 135.463 159.063C136.112 161.743 137.699 164.102 139.937 165.716C140.423 166.067 139.811 166.77 139.328 166.421Z" fill="white"/>
<path d="M133.273 191.251C139.271 190.376 144.719 187.277 148.53 182.57C148.907 182.103 149.612 182.712 149.236 183.178C145.261 188.069 139.585 191.283 133.341 192.18C132.746 192.265 132.681 191.336 133.273 191.251Z" fill="white"/>
<path d="M157.552 146.313C158.337 147.182 159.326 147.843 160.43 148.236C161.534 148.629 162.718 148.742 163.877 148.565C164.47 148.472 164.535 149.401 163.945 149.493C162.664 149.683 161.356 149.556 160.135 149.125C158.915 148.693 157.818 147.97 156.942 147.018C156.852 146.935 156.797 146.821 156.788 146.699C156.779 146.577 156.817 146.457 156.894 146.362C156.975 146.269 157.09 146.212 157.213 146.203C157.336 146.193 157.458 146.233 157.552 146.313Z" fill="white"/>
<path d="M216.019 193.696C215.65 193.765 215.281 193.833 214.909 193.909C209.95 194.853 205.077 196.198 200.337 197.93C199.968 198.058 199.597 198.193 199.233 198.331C187.857 202.626 177.38 208.991 168.332 217.104C164.735 220.336 161.389 223.836 158.324 227.574C154.091 232.737 149.912 238.671 144.381 242.038C143.808 242.395 143.213 242.717 142.6 243.001L110.734 229.807C110.677 229.74 110.616 229.681 110.558 229.615L109.262 229.146C109.406 228.942 109.561 228.734 109.705 228.53C109.789 228.411 109.879 228.296 109.963 228.177C110.021 228.099 110.079 228.021 110.126 227.947C110.146 227.921 110.165 227.895 110.181 227.876C110.229 227.803 110.281 227.739 110.326 227.673C111.186 226.506 112.055 225.343 112.934 224.185C112.937 224.177 112.937 224.177 112.947 224.173C119.668 215.361 127.184 207.032 135.728 200.107C135.985 199.899 136.245 199.683 136.517 199.481C140.385 196.381 144.501 193.601 148.823 191.171C151.194 189.847 153.631 188.644 156.123 187.567C162.57 184.795 169.413 183.053 176.401 182.404C190.333 181.113 204.524 184.284 215.21 193.021C215.483 193.245 215.749 193.465 216.019 193.696Z" fill="#F0F0F0"/>
<path d="M215.78 194.071C198.786 190.678 180.597 192.682 164.853 199.973C161.449 201.55 158.133 203.444 155.374 206.009C152.613 208.576 150.85 211.67 149.739 215.245C148.723 218.513 148.063 221.973 146.27 224.937C144.379 228.062 141.262 229.969 137.713 230.673C133.371 231.534 128.978 230.785 124.707 229.905C119.965 228.927 115.055 227.837 110.252 229.058C109.669 229.206 109.474 228.295 110.055 228.148C118.413 226.023 126.544 230.562 134.919 230.087C138.827 229.866 142.692 228.467 145.009 225.164C147.036 222.276 147.72 218.708 148.72 215.39C149.77 211.907 151.336 208.788 153.892 206.156C156.507 203.462 159.755 201.434 163.103 199.778C170.655 196.042 178.947 193.635 187.274 192.428C196.846 191.04 206.585 191.296 216.07 193.186C216.657 193.303 216.363 194.188 215.78 194.071Z" fill="white"/>
<path d="M169.845 197.333C168.987 194.499 169.167 191.453 170.351 188.739C171.536 186.025 173.648 183.82 176.311 182.517C176.851 182.255 177.283 183.08 176.743 183.342C174.261 184.551 172.294 186.605 171.196 189.135C170.098 191.664 169.942 194.502 170.756 197.137C170.933 197.709 170.02 197.902 169.845 197.333Z" fill="white"/>
<path d="M150.035 213.52C155.352 216.426 161.571 217.226 167.452 215.758C168.035 215.612 168.231 216.522 167.649 216.668C161.526 218.184 155.056 217.339 149.529 214.302C149.003 214.012 149.511 213.232 150.035 213.52Z" fill="white"/>
<path d="M196.523 192.232C196.626 193.397 197.017 194.519 197.662 195.496C198.306 196.473 199.184 197.276 200.216 197.831C200.746 198.114 200.237 198.894 199.71 198.613C198.573 197.994 197.605 197.107 196.891 196.029C196.176 194.951 195.737 193.715 195.612 192.428C195.59 192.308 195.614 192.184 195.681 192.081C195.747 191.978 195.85 191.904 195.969 191.875C196.09 191.849 196.216 191.873 196.32 191.939C196.423 192.006 196.497 192.111 196.523 192.232Z" fill="white"/>
<path d="M155.317 215.466C150.854 193.925 145.276 186.743 145.276 186.743L143.145 185.093L140.582 183.106L140.594 182.85L139.986 182.644L139.843 182.533L139.61 182.354L139.572 182.394L139.492 182.477L127.895 178.541L113.183 173.552L106.37 164.712C105.26 163.272 103.832 162.109 102.196 161.312C100.561 160.516 98.7626 160.108 96.943 160.122L75.1846 160.283C72.2426 160.304 69.4152 161.424 67.2582 163.421L52.9568 176.664L30.6724 187.289L30.6348 187.251L30.4008 187.418L26.9576 189.062L27.0997 189.8L24.9686 191.335C24.9686 191.335 19.3902 198.018 14.9275 218.061C13.7922 223.161 13.2334 234.102 13.0317 247.583C13.0216 248.265 13.1473 248.942 13.4017 249.575C13.6561 250.208 14.034 250.784 14.5134 251.27C14.9929 251.756 15.5643 252.142 16.1945 252.406C16.8246 252.669 17.501 252.805 18.1842 252.805H137.209L152.065 252.805C152.748 252.805 153.424 252.669 154.054 252.406C154.684 252.143 155.255 251.757 155.734 251.272C156.213 250.787 156.591 250.211 156.846 249.579C157.101 248.946 157.227 248.27 157.218 247.588C157.021 232.919 156.462 220.997 155.317 215.466Z" fill="url(#paint0_linear_15_89)"/>
<path d="M89.4807 151.962C105.224 151.962 117.986 139.222 117.986 123.505C117.986 107.789 105.224 95.0487 89.4807 95.0487C73.7375 95.0487 60.9751 107.789 60.9751 123.505C60.9751 139.222 73.7375 151.962 89.4807 151.962Z" fill="#F1D4BB"/>
<path d="M82.1877 150.569C82.0659 150.301 81.9445 150.032 81.8234 149.763C81.87 149.764 81.9162 149.771 81.9629 149.772L82.1877 150.569Z" fill="#2F2E41"/>
<path d="M60.1825 96.343C61.6242 95.1948 63.3092 94.1384 65.1526 94.1978C66.9958 94.2571 68.8651 95.9191 68.4832 97.7203C71.8689 91.7358 77.258 87.133 83.7045 84.7199C90.151 82.3068 97.243 82.2375 103.736 84.5242C108.317 86.1378 112.81 89.3659 113.862 94.1005C114.132 95.3159 114.19 96.6485 114.95 97.6355C115.909 98.8798 117.743 99.1613 119.253 98.7236C119.268 98.7192 119.283 98.7148 119.298 98.7103C119.553 98.6233 119.828 98.6148 120.088 98.6857C120.348 98.7567 120.581 98.9039 120.756 99.1083C120.932 99.3128 121.041 99.565 121.071 99.8324C121.102 100.1 121.051 100.37 120.925 100.608L119.629 103.022C121.263 103.385 122.961 103.349 124.578 102.917C124.847 102.846 125.13 102.861 125.391 102.958C125.651 103.055 125.874 103.23 126.031 103.459C126.187 103.688 126.269 103.96 126.265 104.237C126.261 104.514 126.171 104.783 126.007 105.007C121.733 110.866 114.592 114.649 107.304 114.604C102.125 114.573 96.8924 112.791 91.8517 113.98C89.9017 114.44 88.0795 115.33 86.519 116.584C84.9584 117.839 83.6991 119.426 82.8333 121.23C81.9675 123.034 81.5172 125.009 81.5156 127.009C81.5139 129.009 81.9609 130.985 82.8237 132.79C81.2752 131.099 78.2817 131.5 76.6977 133.157C75.1138 134.815 74.7037 137.29 74.8633 139.575C75.1074 143.071 76.4793 146.364 77.9256 149.57C65.7997 149.189 54.3305 140.698 50.47 129.213C46.5932 117.679 50.6562 103.929 60.1825 96.343Z" fill="#2F2E41"/>
<path opacity="0.2" d="M41.0881 208.962L49.0833 252.388L53.8806 252.805L41.0881 208.962Z" fill="black"/>
<path opacity="0.2" d="M129.157 205.688L121.162 252.357L116.365 252.805L129.157 205.688Z" fill="black"/>
<path d="M67.0019 81.7277C65.469 82.3668 63.8694 81.6664 63.1986 80.0627C62.5175 78.4344 63.1536 76.7814 64.7111 76.1322C66.2688 75.4828 67.8399 76.1849 68.532 77.8394C69.2137 79.4692 68.5845 81.0681 67.0019 81.7277ZM64.0654 72.9271L62.8465 73.4352C62.5421 73.5606 62.2015 73.5674 61.8922 73.4542C61.583 73.3409 61.3276 73.116 61.1765 72.8237L61.1162 72.706C59.8047 70.3448 59.6546 67.4751 60.6723 64.1811C61.6151 61.2263 62.0066 59.1481 61.2191 57.2654C60.3087 55.0887 58.3644 54.4068 55.8851 55.3946C54.9235 55.7954 54.6175 55.789 53.8607 56.5384C53.6961 56.7034 53.4999 56.8337 53.2838 56.9213C53.0677 57.009 52.8361 57.0523 52.6029 57.0487C52.3774 57.0461 52.1548 56.9981 51.9482 56.9077C51.7417 56.8173 51.5556 56.6863 51.4009 56.5226C51.1028 56.207 50.9358 55.7902 50.9336 55.3565C50.9314 54.9227 51.0942 54.5043 51.389 54.1857C52.661 52.8565 54.1951 51.805 55.8947 51.0974C61.2217 48.8768 63.9034 52.1552 65.1306 55.089C66.3309 57.9586 65.6557 60.6211 64.5708 64.0694C63.6616 66.9347 63.7146 69.0578 64.7473 71.1689C64.8219 71.3284 64.8634 71.5014 64.8693 71.6774C64.8752 71.8534 64.8454 72.0288 64.7817 72.193C64.718 72.3573 64.6218 72.5069 64.4987 72.6331C64.3756 72.7592 64.2282 72.8593 64.0654 72.9271Z" fill="url(#paint1_linear_15_89)"/>
<path d="M129.167 46.0432C125.093 46.0432 121.186 47.6588 118.305 50.5345C115.424 53.4103 113.806 57.3106 113.806 61.3775C113.806 65.4444 115.424 69.3447 118.305 72.2205C121.186 75.0962 125.093 76.7118 129.167 76.7118H243.64C247.713 76.7118 251.62 75.0962 254.501 72.2205C257.382 69.3447 259 65.4444 259 61.3775C259 57.3106 257.382 53.4103 254.501 50.5345C251.62 47.6588 247.713 46.0432 243.64 46.0432H129.167Z" fill="#E5E5E5"/>
<path d="M129.167 49.1466C125.918 49.1466 122.802 50.4352 120.504 52.729C118.206 55.0227 116.915 58.1337 116.915 61.3775C116.915 64.6214 118.206 67.7323 120.504 70.0261C122.802 72.3198 125.918 73.6084 129.167 73.6084H243.64C246.89 73.6084 250.006 72.3198 252.304 70.0261C254.601 67.7323 255.892 64.6214 255.892 61.3775C255.892 58.1337 254.601 55.0227 252.304 52.729C250.006 50.4352 246.89 49.1466 243.64 49.1466H129.167Z" fill="white"/>
<path d="M154.452 68.691H131.676C131.604 68.6915 131.532 68.6776 131.465 68.6503C131.398 68.623 131.337 68.5828 131.286 68.5319C131.235 68.481 131.194 68.4204 131.166 68.3538C131.138 68.2871 131.124 68.2155 131.124 68.1433C131.124 68.0711 131.138 67.9996 131.166 67.9329C131.194 67.8662 131.235 67.8056 131.286 67.7547C131.337 67.7038 131.398 67.6636 131.465 67.6363C131.532 67.609 131.604 67.5952 131.676 67.5957H154.452C154.597 67.5966 154.736 67.6548 154.838 67.7574C154.94 67.86 154.997 67.9987 154.997 68.1433C154.997 68.2879 154.94 68.4266 154.838 68.5292C154.736 68.6318 154.597 68.69 154.452 68.691Z" fill="#222628"/>
<path d="M183.345 68.8734H160.569C160.497 68.8739 160.425 68.8601 160.358 68.8328C160.291 68.8055 160.23 68.7652 160.179 68.7143C160.127 68.6634 160.087 68.6028 160.059 68.5362C160.031 68.4695 160.017 68.3979 160.017 68.3257C160.017 68.2535 160.031 68.182 160.059 68.1153C160.087 68.0486 160.127 67.988 160.179 67.9371C160.23 67.8862 160.291 67.846 160.358 67.8187C160.425 67.7914 160.497 67.7776 160.569 67.7781H183.345C183.417 67.7776 183.489 67.7914 183.556 67.8187C183.623 67.846 183.684 67.8862 183.735 67.9371C183.787 67.988 183.827 68.0486 183.855 68.1153C183.883 68.182 183.897 68.2535 183.897 68.3257C183.897 68.3979 183.883 68.4695 183.855 68.5362C183.827 68.6028 183.787 68.6634 183.735 68.7143C183.684 68.7652 183.623 68.8055 183.556 68.8328C183.489 68.8601 183.417 68.8739 183.345 68.8734Z" fill="#222628"/>
<path d="M212.238 69.0558H189.462C189.317 69.0548 189.178 68.9966 189.076 68.894C188.974 68.7915 188.917 68.6527 188.917 68.5081C188.917 68.3635 188.974 68.2248 189.076 68.1222C189.178 68.0196 189.317 67.9614 189.462 67.9605H212.238C212.31 67.96 212.382 67.9738 212.449 68.0011C212.516 68.0284 212.577 68.0686 212.628 68.1195C212.679 68.1704 212.72 68.231 212.748 68.2977C212.776 68.3644 212.79 68.4359 212.79 68.5081C212.79 68.5803 212.776 68.6519 212.748 68.7186C212.72 68.7852 212.679 68.8458 212.628 68.8967C212.577 68.9476 212.516 68.9879 212.449 69.0152C212.382 69.0425 212.31 69.0563 212.238 69.0558Z" fill="#222628"/>
<path d="M241.13 69.2382H218.355C218.21 69.2372 218.071 69.179 217.969 69.0764C217.867 68.9738 217.81 68.8351 217.81 68.6905C217.81 68.5459 217.867 68.4072 217.969 68.3046C218.071 68.202 218.21 68.1438 218.355 68.1429H241.13C241.275 68.1438 241.414 68.202 241.516 68.3046C241.618 68.4072 241.675 68.5459 241.675 68.6905C241.675 68.8351 241.618 68.9738 241.516 69.0764C241.414 69.179 241.275 69.2372 241.13 69.2382Z" fill="#222628"/>
<path d="M143.015 63.6507C145.353 63.6507 147.248 61.7587 147.248 59.4248C147.248 57.091 145.353 55.199 143.015 55.199C140.677 55.199 138.782 57.091 138.782 59.4248C138.782 61.7587 140.677 63.6507 143.015 63.6507Z" fill="#413B92"/>
<path d="M172.081 63.6507C174.419 63.6507 176.314 61.7587 176.314 59.4248C176.314 57.091 174.419 55.199 172.081 55.199C169.743 55.199 167.848 57.091 167.848 59.4248C167.848 61.7587 169.743 63.6507 172.081 63.6507Z" fill="#413B92"/>
<path d="M201.149 63.6507C203.487 63.6507 205.382 61.7587 205.382 59.4248C205.382 57.091 203.487 55.199 201.149 55.199C198.811 55.199 196.916 57.091 196.916 59.4248C196.916 61.7587 198.811 63.6507 201.149 63.6507Z" fill="#413B92"/>
<path d="M230.216 63.6507C232.554 63.6507 234.449 61.7587 234.449 59.4248C234.449 57.091 232.554 55.199 230.216 55.199C227.878 55.199 225.983 57.091 225.983 59.4248C225.983 61.7587 227.878 63.6507 230.216 63.6507Z" fill="#413B92"/>
<path d="M186.781 38.2249C197.336 38.2249 205.893 29.6679 205.893 19.1124C205.893 8.55692 197.336 0 186.781 0C176.225 0 167.668 8.55692 167.668 19.1124C167.668 29.6679 176.225 38.2249 186.781 38.2249Z" fill="url(#paint2_linear_15_89)"/>
<path d="M192.076 17.8938V14.2369C192.076 13.5411 191.94 12.8522 191.674 12.2093C191.408 11.5664 191.018 10.9822 190.526 10.49C190.035 9.99793 189.451 9.60754 188.808 9.34118C188.165 9.07483 187.476 8.93774 186.781 8.93774C186.085 8.93774 185.396 9.07483 184.753 9.34118C184.111 9.60754 183.527 9.99793 183.035 10.49C182.543 10.9822 182.153 11.5664 181.887 12.2093C181.622 12.8522 181.485 13.5411 181.485 14.2369V17.8938C180.778 17.9257 180.109 18.2292 179.62 18.7412C179.13 19.2533 178.856 19.9344 178.856 20.6429V29.2847H194.705V20.6429C194.705 19.9344 194.432 19.2533 193.942 18.7412C193.452 18.2292 192.784 17.9257 192.076 17.8938ZM186.781 10.806C187.69 10.8071 188.562 11.1689 189.205 11.8121C189.849 12.4552 190.21 13.3273 190.211 14.2369V17.8874H183.35V14.2369C183.351 13.3273 183.713 12.4552 184.356 11.8121C184.999 11.1689 185.871 10.8071 186.781 10.806Z" fill="white"/>
<path d="M188.206 22.1605C188.206 21.9149 188.142 21.6734 188.022 21.4595C187.901 21.2456 187.727 21.0666 187.516 20.9398C187.306 20.813 187.066 20.7428 186.821 20.7359C186.575 20.7291 186.332 20.7858 186.115 20.9007C185.898 21.0155 185.714 21.1846 185.582 21.3914C185.449 21.5982 185.372 21.8358 185.359 22.081C185.345 22.3263 185.395 22.5709 185.504 22.7911C185.613 23.0113 185.776 23.1997 185.98 23.3379V26.4345H187.582V23.3379C187.774 23.2074 187.932 23.0319 188.04 22.8267C188.149 22.6214 188.206 22.3927 188.206 22.1605Z" fill="#DB9533"/>
<defs>
<linearGradient id="paint0_linear_15_89" x1="85.1248" y1="160.122" x2="85.1248" y2="252.805" gradientUnits="userSpaceOnUse">
<stop stop-color="#6660BE"/>
<stop offset="1" stop-color="#413B92"/>
</linearGradient>
<linearGradient id="paint1_linear_15_89" x1="59.869" y1="50.3668" x2="59.869" y2="81.9627" gradientUnits="userSpaceOnUse">
<stop stop-color="#FAB350"/>
<stop offset="1" stop-color="#B06C0C"/>
</linearGradient>
<linearGradient id="paint2_linear_15_89" x1="186.781" y1="0" x2="186.781" y2="38.2249" gradientUnits="userSpaceOnUse">
<stop stop-color="#FAB350"/>
<stop offset="1" stop-color="#B06C0C"/>
</linearGradient>
</defs>
</svg>
