<svg width="341" height="261" viewBox="0 0 341 261" fill="none" xmlns="http://www.w3.org/2000/svg">
<mask id="mask0_239_1569" style="mask-type:luminance" maskUnits="userSpaceOnUse" x="3" y="58" width="329" height="164">
<path d="M331.205 58.6449H3.79443V221.993H331.205V58.6449Z" fill="white"/>
</mask>
<g mask="url(#mask0_239_1569)">
<path d="M331.205 178.081C331.223 179.417 330.952 180.742 330.407 181.981C329.862 183.22 329.054 184.348 328.029 185.298C327.005 186.249 325.785 187.003 324.439 187.518C323.094 188.033 321.651 188.299 320.193 188.299H241.52C242.663 190.213 243.099 192.415 242.761 194.575C242.424 196.735 241.331 198.737 239.648 200.281C239.005 200.867 238.288 201.381 237.512 201.81H252.044C258.123 201.81 263.268 206.206 263.346 211.77C263.364 213.106 263.093 214.432 262.548 215.671C262.002 216.91 261.194 218.037 260.17 218.988C259.146 219.939 257.926 220.694 256.581 221.21C255.236 221.726 253.792 221.992 252.334 221.993H180.093C177.682 221.993 175.338 221.268 173.42 219.93C171.502 218.591 170.116 216.713 169.475 214.584C168.834 212.455 168.973 210.192 169.871 208.142C170.769 206.092 172.376 204.368 174.445 203.235H131.17C125.091 203.235 119.946 198.839 119.868 193.276C119.843 191.475 120.344 189.7 121.321 188.137C122.297 186.573 123.712 185.278 125.42 184.385C123.631 183.534 122.131 182.249 121.085 180.67C120.038 179.092 119.485 177.28 119.486 175.433V163.073C119.484 161.495 119.887 159.938 120.663 158.529C121.438 157.12 122.564 155.897 123.949 154.96H46.1834C40.1108 154.96 34.971 150.575 34.8815 145.017C34.8597 143.679 35.1285 142.351 35.6721 141.109C36.2158 139.868 37.0235 138.738 38.0482 137.785C39.073 136.832 40.2943 136.075 41.6412 135.559C42.9881 135.043 44.4336 134.777 45.8936 134.777H51.392C53.6481 134.776 55.8116 133.955 57.4069 132.493C59.0022 131.032 59.8988 129.049 59.8996 126.982V126.977C59.8988 124.91 59.0027 122.929 57.408 121.467C55.8133 120.006 53.6506 119.184 51.395 119.182H14.8065C11.8859 119.182 9.08497 118.119 7.0198 116.227C4.95463 114.335 3.79443 111.769 3.79443 109.093C3.79443 106.417 4.95463 103.851 7.0198 101.959C9.08497 100.067 11.8859 99.0042 14.8065 99.0042H67.7017C69.1478 99.0045 70.5799 98.7439 71.9161 98.2372C73.2523 97.7305 74.4665 96.9876 75.4893 96.051C76.5121 95.1144 77.3236 94.0024 77.8774 92.7785C78.4312 91.5545 78.7164 90.2426 78.7168 88.9177C78.7171 87.5928 78.4327 86.2808 77.8796 85.0566C77.3266 83.8323 76.5158 82.7199 75.4935 81.7828C74.4712 80.8457 73.2574 80.1022 71.9215 79.5949C70.5856 79.0875 69.1537 78.8262 67.7076 78.8259H52.6034C46.5184 78.8259 41.3734 74.419 41.3074 68.8446C41.2913 67.5103 41.5642 66.1864 42.1104 64.9494C42.6566 63.7124 43.4652 62.5869 44.4894 61.6382C45.5135 60.6895 46.733 59.9363 48.077 59.4223C49.4211 58.9083 50.8631 58.6437 52.3195 58.6438H152.793C158.711 58.6438 163.79 62.8154 164.077 68.2366C164.174 70.0251 163.751 71.805 162.85 73.3945H292.423C295.344 73.3945 298.145 74.4574 300.21 76.3495C302.275 78.2416 303.435 80.8078 303.435 83.4836C303.435 86.1594 302.275 88.7256 300.21 90.6177C298.145 92.5098 295.344 93.5727 292.423 93.5727H244.429C244.427 95.7441 243.485 97.826 241.809 99.3614C240.133 100.897 237.861 101.76 235.491 101.762H181.392C182.995 103.149 184.107 104.945 184.584 106.917C185.06 108.889 184.879 110.947 184.064 112.824C183.25 114.701 181.838 116.311 180.013 117.444C178.189 118.578 176.034 119.183 173.829 119.182H158.705C158.109 119.182 157.52 119.289 156.97 119.497C156.42 119.706 155.92 120.011 155.499 120.397C155.078 120.782 154.744 121.239 154.516 121.743C154.288 122.247 154.17 122.787 154.17 123.332V123.337C154.17 123.883 154.288 124.423 154.516 124.926C154.744 125.43 155.078 125.887 155.499 126.273C155.92 126.658 156.42 126.964 156.97 127.172C157.52 127.38 158.109 127.487 158.705 127.487H281.492C284.413 127.487 287.214 128.55 289.279 130.442C291.344 132.334 292.505 134.9 292.505 137.576C292.505 140.252 291.344 142.818 289.279 144.71C287.214 146.602 284.413 147.665 281.492 147.665H249.735C251.346 148.568 252.676 149.834 253.599 151.343C254.522 152.852 255.006 154.552 255.006 156.282V159.161C255.007 161.013 254.452 162.828 253.401 164.409C252.349 165.99 250.843 167.275 249.047 168.123H319.903C325.981 168.123 331.127 172.52 331.205 178.083" fill="#FBF8FF"/>
</g>
<path d="M265.203 98.8795V111.304" stroke="#00A9FF" stroke-width="2" stroke-miterlimit="10" stroke-linecap="round"/>
<path d="M258.423 105.092H271.984" stroke="#00A9FF" stroke-width="2" stroke-miterlimit="10" stroke-linecap="round"/>
<path d="M82.7732 31.1582V42.1327" stroke="#00A9FF" stroke-width="2" stroke-miterlimit="10" stroke-linecap="round"/>
<path d="M76.7842 36.6451H88.7626" stroke="#00A9FF" stroke-width="2" stroke-miterlimit="10" stroke-linecap="round"/>
<path d="M314.41 49.4336C314.41 50.8777 313.943 52.2894 313.067 53.4902C312.191 54.6909 310.947 55.6269 309.491 56.1796C308.034 56.7323 306.432 56.877 304.886 56.5953C303.34 56.3136 301.92 55.6183 300.806 54.5972C299.691 53.5761 298.932 52.2751 298.624 50.8587C298.317 49.4424 298.475 47.9743 299.078 46.6401C299.681 45.3059 300.702 44.1656 302.013 43.3632C303.324 42.5609 304.864 42.1327 306.441 42.1327C308.554 42.1327 310.581 42.9019 312.076 44.271C313.57 45.6402 314.41 47.4972 314.41 49.4336Z" stroke="#00A9FF" stroke-width="2" stroke-miterlimit="10"/>
<path d="M16.9555 171.34C16.9561 172.784 16.4892 174.196 15.6139 175.397C14.7386 176.598 13.4941 177.534 12.038 178.087C10.5818 178.64 8.97935 178.785 7.43326 178.504C5.88716 178.222 4.46689 177.527 3.35206 176.506C2.23723 175.485 1.47793 174.184 1.17019 172.768C0.862456 171.351 1.0201 169.883 1.6232 168.549C2.22629 167.214 3.24774 166.074 4.55836 165.272C5.86897 164.469 7.40988 164.041 8.98619 164.041C11.0993 164.041 13.1259 164.81 14.6203 166.178C16.1148 167.547 16.9548 169.404 16.9555 171.34Z" stroke="#00A9FF" stroke-width="2" stroke-miterlimit="10"/>
<path d="M339.462 156.072C339.462 156.771 339.235 157.454 338.811 158.035C338.388 158.616 337.785 159.069 337.08 159.337C336.375 159.604 335.6 159.674 334.851 159.538C334.103 159.402 333.416 159.065 332.876 158.571C332.336 158.076 331.969 157.447 331.82 156.761C331.671 156.075 331.748 155.365 332.04 154.719C332.332 154.073 332.826 153.521 333.461 153.133C334.095 152.744 334.841 152.537 335.604 152.537C336.627 152.537 337.608 152.909 338.332 153.572C339.055 154.235 339.462 155.134 339.462 156.072Z" stroke="#00A9FF" stroke-width="2" stroke-miterlimit="10"/>
<path d="M44.8391 141.859C44.8391 142.558 44.6128 143.241 44.1889 143.822C43.765 144.404 43.1625 144.857 42.4576 145.124C41.7527 145.392 40.977 145.462 40.2287 145.325C39.4804 145.189 38.793 144.852 38.2535 144.358C37.7139 143.864 37.3465 143.234 37.1977 142.548C37.0488 141.863 37.1252 141.152 37.4172 140.506C37.7092 139.86 38.2036 139.308 38.838 138.92C39.4725 138.532 40.2183 138.324 40.9813 138.324C42.0044 138.324 42.9857 138.697 43.7092 139.36C44.4326 140.022 44.8391 140.921 44.8391 141.859Z" stroke="#00A9FF" stroke-width="2" stroke-miterlimit="10"/>
<path d="M170.838 245.441C203.151 245.441 229.345 242.705 229.345 239.33C229.345 235.954 203.151 233.218 170.838 233.218C138.525 233.218 112.331 235.954 112.331 239.33C112.331 242.705 138.525 245.441 170.838 245.441Z" fill="#EDE2FD"/>
<path d="M137.628 139.839C139.164 139.987 140.541 138.967 140.703 137.559C140.865 136.152 139.751 134.891 138.215 134.742C136.679 134.594 135.302 135.614 135.14 137.021C134.978 138.429 136.092 139.69 137.628 139.839Z" fill="#F8F4FF"/>
<path d="M127.585 128.086C133.711 128.078 139.632 130.103 144.256 133.785H151.699C152.139 133.785 152.571 133.884 152.959 134.073C153.346 134.262 153.677 134.536 153.921 134.871C154.166 135.205 154.317 135.589 154.361 135.99C154.404 136.39 154.34 136.794 154.173 137.166L151.438 143.255C153.02 147.141 153.441 151.342 152.659 155.427C151.877 159.511 149.921 163.331 146.991 166.492C144.061 169.652 140.264 172.04 135.992 173.409C131.719 174.777 127.125 175.077 122.684 174.277C118.243 173.477 114.115 171.606 110.726 168.857C107.337 166.109 104.81 162.582 103.404 158.64C101.998 154.698 101.766 150.484 102.73 146.433C103.694 142.381 105.82 138.638 108.889 135.591C111.21 133.289 114.543 130.621 118.556 129.205C121.572 128.14 125.261 128.086 127.585 128.086Z" fill="white" stroke="#00A9FF" stroke-width="2" stroke-miterlimit="10" stroke-linecap="round"/>
<path d="M137.528 159.932C134.724 158.376 131.507 157.552 128.228 157.552C124.949 157.552 121.733 158.376 118.928 159.932" stroke="#00A9FF" stroke-width="2" stroke-miterlimit="10" stroke-linecap="round"/>
<path d="M118.617 147.556C119.191 147.556 119.656 147.13 119.656 146.604C119.656 146.078 119.191 145.652 118.617 145.652C118.042 145.652 117.577 146.078 117.577 146.604C117.577 147.13 118.042 147.556 118.617 147.556Z" stroke="#00A9FF" stroke-width="2" stroke-miterlimit="10" stroke-linecap="round"/>
<path d="M137.321 147.556C137.895 147.556 138.36 147.13 138.36 146.604C138.36 146.078 137.895 145.652 137.321 145.652C136.747 145.652 136.282 146.078 136.282 146.604C136.282 147.13 136.747 147.556 137.321 147.556Z" stroke="#00A9FF" stroke-width="2" stroke-miterlimit="10" stroke-linecap="round"/>
<path d="M156.694 115.052C152.475 115.239 148.259 114.647 144.295 113.31L122.191 105.879C118.301 104.572 114.73 102.575 111.683 100.004C108.635 97.4319 106.17 94.3353 104.428 90.8907C102.687 87.4461 101.703 83.721 101.533 79.928C101.363 76.135 102.01 72.3485 103.438 68.7847C105.095 64.646 107.761 60.9086 111.234 57.8577C111.154 57.9289 111.194 57.8933 111.234 57.8577C112.869 56.3009 114.741 54.9682 116.791 53.9008C120.637 51.9337 123.899 50.8535 126.882 50.41" fill="#56B5F5"/>
<path d="M156.694 115.052C152.475 115.239 148.259 114.647 144.295 113.31L122.191 105.879C118.301 104.572 114.73 102.575 111.683 100.004C108.635 97.4319 106.17 94.3353 104.428 90.8907C102.687 87.4461 101.703 83.721 101.533 79.928C101.363 76.135 102.01 72.3485 103.438 68.7847C105.095 64.646 107.761 60.9086 111.234 57.8577M111.234 57.8577C111.154 57.9289 111.194 57.8933 111.234 57.8577ZM111.234 57.8577C112.869 56.3009 114.741 54.9682 116.791 53.9008C120.637 51.9337 123.899 50.8535 126.882 50.41" stroke="#00A9FF" stroke-width="2" stroke-miterlimit="10" stroke-linecap="round"/>
<path d="M123.193 51.3073C129.929 49.2819 137.215 49.4007 143.868 51.6445L165.97 59.0754C169.86 60.3828 173.431 62.3793 176.479 64.9511C179.527 67.5228 181.992 70.6194 183.733 74.064C185.474 77.5086 186.458 81.2338 186.628 85.0267C186.798 88.8197 186.151 92.6062 184.724 96.17C182.253 102.368 177.534 107.6 171.356 110.99" fill="#56B5F5"/>
<path d="M123.193 51.3073C129.929 49.2819 137.215 49.4007 143.868 51.6445L165.97 59.0754C169.86 60.3828 173.431 62.3793 176.479 64.9511C179.527 67.5228 181.992 70.6194 183.733 74.064C185.474 77.5086 186.458 81.2338 186.628 85.0267C186.798 88.8197 186.151 92.6062 184.724 96.17C182.253 102.368 177.534 107.6 171.356 110.99" stroke="#00A9FF" stroke-width="2" stroke-miterlimit="10" stroke-linecap="round"/>
<path d="M152.729 103.323C152.729 103.323 150.036 102.683 149.41 102.478L124.774 94.3555C122.373 93.5866 120.163 92.3876 118.273 90.8284C116.382 89.2692 114.85 87.3809 113.764 85.2736C112.677 83.1664 112.06 80.8821 111.947 78.554C111.834 76.226 112.228 73.9005 113.105 71.7132C114.976 67.2937 118.662 63.7212 123.373 61.7608C128.084 59.8003 133.445 59.6077 138.309 61.2243L162.945 69.3463C173.111 72.6946 179.182 81.4997 175.45 90.6333C172.121 98.7802 168.401 104.672 167.349 105.181" fill="white"/>
<path d="M152.729 103.323C152.729 103.323 150.036 102.683 149.41 102.478L124.774 94.3555C122.373 93.5866 120.163 92.3876 118.273 90.8284C116.382 89.2692 114.85 87.3809 113.764 85.2736C112.677 83.1664 112.06 80.8821 111.947 78.554C111.834 76.226 112.228 73.9005 113.105 71.7132C114.976 67.2937 118.662 63.7212 123.373 61.7608C128.084 59.8003 133.445 59.6077 138.309 61.2243L162.945 69.3463C173.111 72.6946 179.182 81.4997 175.45 90.6333C172.121 98.7802 168.401 104.672 167.349 105.181" stroke="#00A9FF" stroke-width="2" stroke-miterlimit="10" stroke-linecap="round"/>
<path d="M209.618 113.071C205.466 112.277 198.436 112.718 194.027 113.623C186.086 115.252 179.176 119.704 174.817 126C170.458 132.296 169.006 139.921 170.782 147.197L175.782 167.674C177.092 173.087 180.13 178.021 184.508 181.849C187.408 184.262 190.709 186.236 194.287 187.696" fill="#56B5F5"/>
<path d="M209.618 113.071C205.466 112.277 198.436 112.718 194.027 113.623C186.086 115.252 179.176 119.704 174.817 126C170.458 132.296 169.006 139.921 170.782 147.197L175.782 167.674C177.092 173.087 180.13 178.021 184.508 181.849C187.408 184.262 190.709 186.236 194.287 187.696" stroke="#00A9FF" stroke-width="2" stroke-miterlimit="10" stroke-linecap="round"/>
<path d="M189.536 185.419C196.359 189.316 204.583 190.594 212.427 188.975C220.369 187.346 227.279 182.894 231.638 176.597C235.997 170.301 237.448 162.677 235.672 155.4L230.673 134.924C229.818 131.396 228.225 128.053 225.982 125.08C224.51 123.23 222.64 121.675 220.487 120.513" fill="#56B5F5"/>
<path d="M189.536 185.419C196.359 189.316 204.583 190.594 212.427 188.975C220.369 187.346 227.279 182.894 231.638 176.597C235.997 170.301 237.448 162.677 235.672 155.4L230.673 134.924C229.818 131.396 228.225 128.053 225.982 125.08C224.51 123.23 222.64 121.675 220.487 120.513" stroke="#00A9FF" stroke-width="2" stroke-miterlimit="10" stroke-linecap="round"/>
<path d="M215.317 132.813C216.314 134.3 217.034 135.929 217.446 137.633L222.446 158.109C222.973 160.133 223.056 162.233 222.69 164.286C222.324 166.34 221.517 168.306 220.314 170.071C219.111 171.836 217.538 173.364 215.684 174.567C213.831 175.77 211.736 176.623 209.52 177.078C207.303 177.532 205.011 177.578 202.775 177.213C200.539 176.849 198.404 176.081 196.495 174.953C194.586 173.826 192.941 172.363 191.655 170.648C190.369 168.933 189.467 167.001 189.003 164.965L184.004 144.488C183.972 144.359 183.945 144.23 183.881 143.948C182.757 138.842 184.074 133.164 187.984 129.482C190.12 127.469 193.618 126.428 196.984 125.739C199.338 125.257 201.778 125.237 204.142 125.681" fill="white"/>
<path d="M215.317 132.813C216.314 134.3 217.034 135.929 217.446 137.633L222.446 158.109C222.973 160.133 223.056 162.233 222.69 164.286C222.324 166.34 221.517 168.306 220.314 170.071C219.111 171.836 217.538 173.364 215.684 174.567C213.831 175.77 211.736 176.623 209.52 177.078C207.303 177.532 205.011 177.578 202.775 177.213C200.539 176.849 198.404 176.081 196.495 174.953C194.586 173.826 192.941 172.363 191.655 170.648C190.369 168.933 189.467 167.001 189.003 164.965L184.004 144.488C183.972 144.359 183.945 144.23 183.881 143.948C182.757 138.842 184.074 133.164 187.984 129.482C190.12 127.469 193.618 126.428 196.984 125.739C199.338 125.257 201.778 125.237 204.142 125.681" stroke="#00A9FF" stroke-width="2" stroke-miterlimit="10" stroke-linecap="round"/>
<path d="M186.993 89.0422C187.783 89.5476 188.513 90.1261 189.172 90.7687C190.452 92.0148 192.219 92.7443 194.085 92.7969C195.951 92.8494 197.764 92.2206 199.124 91.0487L199.355 90.8513C199.993 90.3011 200.508 89.6409 200.868 88.9086C201.228 88.1763 201.428 87.3862 201.455 86.5833C201.482 85.7804 201.336 84.9804 201.025 84.2292C200.715 83.4779 200.246 82.79 199.646 82.2048C195.628 78.238 190.364 75.5132 184.583 74.4076" stroke="#00A9FF" stroke-width="2" stroke-miterlimit="10" stroke-linecap="round"/>
<path d="M184.183 138.449C189.938 140.733 196.377 141.128 202.413 139.568C208.449 138.009 213.713 134.589 217.318 129.887C220.922 125.185 222.646 119.488 222.199 113.757C221.752 108.026 219.162 102.611 214.864 98.4263C214.24 97.8177 213.49 97.3278 212.659 96.9846C211.828 96.6414 210.931 96.4517 210.02 96.4263C209.108 96.4009 208.201 96.5403 207.348 96.8365C206.496 97.1328 205.715 97.58 205.052 98.1528C203.743 99.281 202.977 100.839 202.922 102.484C202.867 104.13 203.527 105.728 204.757 106.928L204.875 107.04C206.094 108.227 207.046 109.623 207.676 111.147C208.306 112.672 208.603 114.295 208.548 115.924C208.493 117.553 208.089 119.157 207.357 120.643C206.626 122.129 205.582 123.468 204.286 124.585C202.475 126.146 200.23 127.22 197.796 127.691C195.363 128.161 192.836 128.009 190.49 127.251" fill="white"/>
<path d="M184.183 138.449C189.938 140.733 196.377 141.128 202.413 139.568C208.449 138.009 213.713 134.589 217.318 129.887C220.922 125.185 222.646 119.488 222.199 113.757C221.752 108.026 219.162 102.611 214.864 98.4263C214.24 97.8177 213.49 97.3278 212.659 96.9846C211.828 96.6414 210.931 96.4517 210.02 96.4263C209.108 96.4009 208.201 96.5403 207.348 96.8365C206.496 97.1328 205.715 97.58 205.052 98.1528C203.743 99.281 202.977 100.839 202.922 102.484C202.867 104.13 203.527 105.728 204.757 106.928L204.875 107.04C206.094 108.227 207.046 109.623 207.676 111.147C208.306 112.672 208.603 114.295 208.548 115.924C208.493 117.553 208.089 119.157 207.357 120.643C206.626 122.129 205.582 123.468 204.286 124.585C202.475 126.146 200.23 127.22 197.796 127.691C195.363 128.161 192.836 128.009 190.49 127.251" stroke="#00A9FF" stroke-width="2" stroke-miterlimit="10" stroke-linecap="round"/>
<path d="M172.165 130.479L160.522 119.137C155.461 114.197 152.746 107.618 152.972 100.846C153.199 94.0736 156.348 87.6601 161.73 83.0126C162.544 82.3123 163.403 81.6561 164.301 81.0471L170.079 77.1226" stroke="#00A9FF" stroke-width="2" stroke-miterlimit="10" stroke-linecap="round"/>
<path d="M180.014 119.358L170.747 110.33C168.356 108.002 166.586 105.004 166.463 101.874C166.327 98.5051 168.313 94.9933 171.35 92.3788C172.712 91.3097 174.133 90.3059 175.608 89.3715" stroke="#00A9FF" stroke-width="2" stroke-miterlimit="10" stroke-linecap="round"/>
</svg>
