<svg xmlns="http://www.w3.org/2000/svg" fill="none" viewBox="0 0 400 400" id="Emptystate-No-Search-Results-Found--Streamline-Milano.svg" height="400" width="400"><desc>Emptystate No Search Results Found Streamline Illustration: https://streamlinehq.com</desc><g id="emptystate-no-search-results-found--interface-emptystate-no-search-results-found"><g id="computer"><path id="vector" fill="#000000" d="M336.146 117.2556c0 -6.748 -4.114 -12.55 -9.934 -15.032 0.464 0.99 0.91 1.982 1.334 2.98 3.966 2.556 6.6 7.024 6.602 12.126 3.904 53.072 3.904 110.3264 -0.002 170.2404 0 7.898 -6.424 14.322 -14.322 14.322 -6.676 0 -105.028 10.584 -255.7642 0 -7.898 0 -14.322 -6.424 -14.324 -14.384 -3.95 -63.85 -3.95 -119.5144 0 -170.2524 0 -7.896 6.424 -14.322 14.408 -14.326 36.874 -3.136 73.976 -4.836 111.084 -5.2 0.258 -0.672 0.526 -1.342 0.802 -2.008 -37.842 0.35 -75.238 2.086 -111.97 5.21 -9 0 -16.322 7.322 -16.32 16.246 -4.658 59.75 -3.562 141.9704 -0.002 206.3184 0 10 7.32 18.138 16.24 18.138 37.132 2.916 73.75 4.618 109.674 5.104l-1.79 13.644h-21.626c-5.602 0 -10.956 1.744 -15.484 5.042l-16.222 11.818c-1.308 0.954 -1.936 2.474 -1.708 4.02 -0.308 3.42 0.842 9.738 4.21 9.738h154.5582c3.358 0 4.502 -6.414 4.214 -9.776 0.198 -1.45 -0.362 -2.894 -1.542 -3.85l-13.754 -11.134c-4.666 -3.778 -10.542 -5.858 -16.546 -5.858h-23.156l-2.078 -13.744c33.106 -0.594 65.538 -2.26 97.144 -5 8.98 -0.028 16.278 -8.154 16.276 -18.084 3.764 -64.558 4.35 -147.2344 0 -206.2984h-0.002ZM247.958 362.38c5.546 0 10.976 1.922 15.288 5.414l13.754 11.134c1.646 1.334 0.704 3.994 -1.414 3.994H121.0298c-2.176 0 -3.082 -2.782 -1.324 -4.064l16.222 -11.818c4.184 -3.048 9.13 -4.66 14.306 -4.66h21.362c-0.792 6.01 -0.744 5.924 -0.464 6.266 7.24 8.814 46.2722 8.928 54.5422 0.046 0.452 -0.488 0.328 -0.354 -0.572 -6.312h22.856Zm-24.08 5.282c-8.24 7.674 -43.8462 7.366 -50.9242 0.026l2.708 -20.924c6.49 0.08 36.5402 0.048 45.0422 -0.094l3.174 20.992Zm110.268 -44.166c0 8.9 -6.424 16.14 -14.322 16.14 -6.68 0 -105.02 11.84 -255.7642 0 -7.898 0 -14.322 -7.24 -14.324 -16.196 -0.602 -10.868 -1.11 -21.522 -1.528 -31.978 1.748 7.126 8.18 12.428 15.778 12.426 84.312 5.924 170.9362 6.582 255.8782 0.002 7.728 -0.018 14.21 -5.434 15.868 -12.628 -0.428 10.662 -0.956 21.41 -1.586 32.234Z" stroke-width="1"></path><path id="vector_2" fill="#000000" d="M253.886 96.938c-23.868 -0.958 -47.62 -1.38 -71.2022 -1.264 -0.234 0.666 -0.458 1.334 -0.676 2.004 23.9662 -0.128 47.9282 0.3 71.8262 1.258 0.004 -0.666 0.022 -1.334 0.054 -2l-0.002 0.002Z" stroke-width="1"></path><path id="vector_3" fill="#000000" d="M280.658 100.2378c11.776 0.668 23.532 1.464 35.258 2.384 -0.24 -0.448 -1.01 -1.844 -1.15 -2.092 -11.492 -0.894 -22.966 -1.664 -34.42 -2.312 0.074 0.682 0.176 1.356 0.312 2.02Z" stroke-width="1"></path><path id="vector_4" fill="#000000" d="M196.804 333.21c-4.694 0 -8.514 -3.82 -8.514 -8.514 0 -4.694 3.82 -8.514 8.514 -8.514 4.694 0 8.514 3.82 8.514 8.514 0 4.694 -3.82 8.514 -8.514 8.514Zm0 -15.028c-3.592 0 -6.514 2.922 -6.514 6.514s2.922 6.514 6.514 6.514 6.514 -2.922 6.514 -6.514 -2.922 -6.514 -6.514 -6.514Z" stroke-width="1"></path></g><g id="screen"><path id="vector_5" fill="#000000" d="M85.1744 285.886c-2.516 -0.366 -4.944 -1.142 -7.216 -2.306 -0.494 -0.25 -1.094 -0.056 -1.346 0.434s-0.058 1.094 0.434 1.346c3.098 1.586 6.882 2.514 7.986 2.514 1.23 0 1.364 -1.81 0.142 -1.988Z" stroke-width="1"></path><path id="vector_6" fill="#000000" d="M63.9584 249.838c-0.208 -2.606 -0.39 -5.238 -0.552 -7.9 -0.034 -0.552 -0.514 -0.976 -1.058 -0.938 -0.55 0.034 -0.97 0.506 -0.938 1.058 0.162 2.674 0.346 5.32 0.554 7.938 0.042 0.524 0.48 0.92 0.996 0.92 0.588 0 1.044 -0.498 0.998 -1.078Z" stroke-width="1"></path><path id="vector_7" fill="#000000" d="M74.5862 117.9582c-2.302 1.528 -4.334 3.41 -6.034 5.59 -0.516 0.664 -0.032 1.616 0.788 1.616 0.298 0 0.592 -0.132 0.79 -0.384 1.568 -2.012 3.438 -3.746 5.562 -5.156 0.46 -0.306 0.586 -0.926 0.28 -1.386 -0.304 -0.46 -0.926 -0.588 -1.386 -0.28Z" stroke-width="1"></path><path id="vector_8" fill="#000000" d="M67.5022 272.872c-0.238 -0.496 -0.832 -0.706 -1.334 -0.466 -0.498 0.24 -0.706 0.838 -0.466 1.336 1.196 2.484 2.786 4.75 4.724 6.734 0.196 0.2 0.456 0.302 0.716 0.302 0.878 0 1.336 -1.066 0.716 -1.7 -1.786 -1.828 -3.252 -3.916 -4.356 -6.206Z" stroke-width="1"></path><path id="vector_9" fill="#000000" d="M65.2002 262.704c-0.188 -1.65 -0.368 -3.31 -0.536 -4.982 -0.054 -0.55 -0.536 -0.948 -1.096 -0.896 -0.548 0.056 -0.95 0.546 -0.894 1.094 0.17 1.682 0.348 3.352 0.532 4.896 0 1.014 0.06 2.032 0.18 3.026 0.062 0.506 0.494 0.878 0.992 0.878 0.6 0 1.066 -0.524 0.994 -1.12 -0.112 -0.914 -0.166 -1.852 -0.174 -2.898l0.002 0.002Z" stroke-width="1"></path><path id="vector_10" fill="#000000" d="M148.368 291.118c-2.638 -0.136 -5.278 -0.286 -7.918 -0.446 -0.544 -0.034 -1.024 0.386 -1.058 0.938 -0.034 0.55 0.386 1.026 0.938 1.058 2.648 0.16 7.99 0.448 7.99 0.448 1.29 0 1.338 -1.932 0.05 -2l-0.002 0.002Z" stroke-width="1"></path><path id="vector_11" fill="#000000" d="M132.5364 290.16c-2.636 -0.182 -5.272 -0.376 -7.912 -0.58 -1.326 -0.106 -1.472 1.892 -0.154 1.994 1.606 0.124 7.746 0.584 7.998 0.584 1.278 0 1.344 -1.91 0.068 -1.998Z" stroke-width="1"></path><path id="vector_12" fill="#000000" d="M121.7764 110.8124c-2.644 0.186 -5.286 0.382 -7.926 0.59 -1.27 0.1 -1.196 1.998 0.078 1.998 0.026 0 5.352 -0.408 7.99 -0.594 1.312 -0.092 1.186 -2.082 -0.142 -1.994Z" stroke-width="1"></path><path id="vector_13" fill="#000000" d="M137.6422 109.828c-2.646 0.14 -5.292 0.294 -7.936 0.458 -1.28 0.08 -1.222 1.998 0.06 1.998 0.02 0 5.342 -0.318 7.982 -0.46 0.552 -0.03 0.974 -0.5 0.946 -1.052 -0.03 -0.552 -0.526 -0.978 -1.052 -0.944Z" stroke-width="1"></path><path id="vector_14" fill="#000000" d="M105.9282 112.0618c-2.64 0.23 -5.278 0.472 -7.916 0.724 -1.256 0.12 -1.168 1.996 0.094 1.996 0.2 0 1.814 -0.188 7.996 -0.728 0.55 -0.048 0.958 -0.534 0.91 -1.084 -0.048 -0.55 -0.548 -0.964 -1.084 -0.908Z" stroke-width="1"></path><path id="vector_15" fill="#000000" d="M100.9264 287.458c-2.626 -0.268 -5.256 -0.544 -7.886 -0.834 -1.322 -0.14 -1.528 1.846 -0.218 1.988 1.134 0.124 7.782 0.84 8.006 0.84 1.26 0 1.35 -1.868 0.098 -1.994Z" stroke-width="1"></path><path id="vector_16" fill="#000000" d="M116.7204 288.938c-2.63 -0.224 -5.264 -0.46 -7.898 -0.708 -1.332 -0.116 -1.494 1.87 -0.188 1.992 1.312 0.124 7.768 0.712 8.002 0.712 1.27 0 1.348 -1.888 0.084 -1.996Z" stroke-width="1"></path><path id="vector_17" fill="#000000" d="M90.1022 113.5778c-2.874 0.308 -4.536 0.086 -8.01 1.004 -1.266 0.334 -0.782 2.276 0.51 1.934 5.432 -1.434 8.804 -0.082 8.598 -2.046 -0.056 -0.548 -0.55 -0.95 -1.098 -0.892Z" stroke-width="1"></path><path id="vector_18" fill="#000000" d="M316.708 144.2478c0.336 2.624 0.65 5.248 0.942 7.868 0.056 0.512 0.49 0.89 0.994 0.89 0.596 0 1.06 -0.518 0.996 -1.11 -0.292 -2.632 -0.608 -5.266 -0.946 -7.9 -0.168 -1.322 -2.152 -1.054 -1.984 0.254l-0.002 -0.002Z" stroke-width="1"></path><path id="vector_19" fill="#000000" d="M318.46 159.9982c0.248 2.632 0.472 5.264 0.674 7.894 0.04 0.524 0.478 0.922 0.996 0.922 0.584 0 1.042 -0.496 0.998 -1.078 -0.202 -2.64 -0.428 -5.284 -0.678 -7.928 -0.122 -1.32 -2.114 -1.13 -1.99 0.19Z" stroke-width="1"></path><path id="vector_20" fill="#000000" d="M315.866 136.3478c0.06 0.508 0.492 0.884 0.992 0.884 0.598 0 1.064 -0.522 0.994 -1.118 -0.322 -2.748 -1.092 -5.408 -2.288 -7.906 -0.238 -0.498 -0.834 -0.708 -1.334 -0.47 -0.498 0.238 -0.708 0.836 -0.47 1.334 1.1 2.3 1.808 4.748 2.106 7.276Z" stroke-width="1"></path><path id="vector_21" fill="#000000" d="M62.9962 234.028c-0.114 -2.614 -0.208 -5.252 -0.282 -7.918 -0.038 -1.348 -2.034 -1.252 -2 0.056 0.076 2.676 0.17 5.324 0.284 7.948 0.058 1.314 2.056 1.26 1.998 -0.086Z" stroke-width="1"></path><path id="vector_22" fill="#000000" d="M320.324 191.6276c0.062 2.644 0.1 5.284 0.114 7.92 0.002 0.5504 0.452 0.9964 1.002 0.9964 0.552 0 1 -0.454 0.998 -1.0044 -0.014 -2.65 -0.052 -5.302 -0.114 -7.958 -0.032 -1.374 -2.03 -1.244 -2 0.046Z" stroke-width="1"></path><path id="vector_23" fill="#000000" d="M64.204 139.8898c0.548 0 1 -0.444 1.004 -0.992 0.018 -2.554 0.452 -5.066 1.29 -7.466 0.182 -0.522 -0.094 -1.092 -0.616 -1.274 -0.514 -0.18 -1.09 0.094 -1.274 0.616 -0.91 2.608 -1.382 5.336 -1.4 8.112 -0.004 0.552 0.444 1.002 0.996 1.004Z" stroke-width="1"></path><path id="vector_24" fill="#000000" d="M61.5582 219.204c0.552 -0.004 1 -0.462 0.992 -1.014 -0.038 -2.618 -0.056 -5.26 -0.06 -7.926 0 -0.55 -0.45 -0.998 -1 -0.998s-1 0.45 -1 1.002c0.004 2.674 0.024 5.324 0.06 7.952 0.008 0.546 0.462 0.988 1.008 0.984Z" stroke-width="1"></path><path id="vector_25" fill="#000000" d="M61.518 203.328c0.548 0.002 1 -0.44 1.004 -0.99 0.026 -2.6202 0.066 -5.2622 0.12 -7.9282 0.01 -0.552 -0.428 -1.01 -0.98 -1.02 -0.502 -0.008 -1.008 0.428 -1.02 0.98 -0.054 2.672 -0.094 5.322 -0.12 7.9482 -0.006 0.552 0.442 1.008 0.996 1.01Z" stroke-width="1"></path><path id="vector_26" fill="#000000" d="M63.43 170.6356c0.118 -2.62 0.244 -5.26 0.38 -7.92 0.064 -1.306 -1.928 -1.448 -1.998 -0.102 -0.136 2.666 -0.262 5.31 -0.38 7.934 -0.06 1.34 1.94 1.378 1.998 0.088Z" stroke-width="1"></path><path id="vector_27" fill="#000000" d="M64.236 154.7938c0.15 -2.62 0.306 -5.258 0.47 -7.918 0.034 -0.55 -0.386 -1.026 -0.936 -1.058 -0.542 -0.038 -1.026 0.384 -1.06 0.936 -0.164 2.664 -0.322 5.304 -0.47 7.928 -0.078 1.34 1.922 1.402 1.996 0.112Z" stroke-width="1"></path><path id="vector_28" fill="#000000" d="M62.8404 186.484c0.076 -2.62 0.164 -5.262 0.262 -7.924 0.05 -1.324 -1.952 -1.398 -1.998 -0.074 -0.098 2.668 -0.188 5.316 -0.264 7.942 -0.036 1.3 1.96 1.39 2 0.056Z" stroke-width="1"></path><path id="vector_29" fill="#000000" d="M290.84 286.36c-2.622 0.332 -5.246 0.65 -7.872 0.954 -1.242 0.142 -1.136 1.994 0.114 1.994 0.268 0 7.238 -0.864 8.008 -0.962 1.306 -0.166 1.068 -2.148 -0.252 -1.984l0.002 -0.002Z" stroke-width="1"></path><path id="vector_30" fill="#000000" d="M310.862 121.4602c-1.93 -1.99 -4.152 -3.64 -6.604 -4.906 -0.492 -0.254 -1.094 -0.06 -1.348 0.43s-0.06 1.094 0.43 1.348c2.26 1.166 4.306 2.688 6.086 4.522 0.196 0.202 0.458 0.302 0.718 0.302 0.876 0 1.334 -1.06 0.718 -1.696Z" stroke-width="1"></path><path id="vector_31" fill="#000000" d="M259.298 289.658c-2.632 0.218 -5.266 0.424 -7.906 0.614 -1.276 0.092 -1.202 1.998 0.072 1.998 0.024 0 5.36 -0.398 8 -0.618 0.55 -0.046 0.958 -0.53 0.914 -1.08 -0.046 -0.548 -0.524 -0.962 -1.08 -0.914Z" stroke-width="1"></path><path id="vector_32" fill="#000000" d="M275.086 288.18c-2.628 0.274 -5.258 0.536 -7.892 0.782 -1.258 0.118 -1.17 1.996 0.092 1.996 0.27 0 6.572 -0.638 8.006 -0.79 0.55 -0.056 0.948 -0.548 0.89 -1.098 -0.058 -0.55 -0.546 -0.948 -1.096 -0.89Z" stroke-width="1"></path><path id="vector_33" fill="#000000" d="M305.648 282.182c-2.124 1.424 -4.442 2.484 -6.894 3.146 -1.122 0.302 -0.902 1.966 0.26 1.966 0.51 0 4.294 -1.132 7.75 -3.452 0.458 -0.308 0.58 -0.928 0.272 -1.388 -0.308 -0.458 -0.93 -0.582 -1.388 -0.272Z" stroke-width="1"></path><path id="vector_34" fill="#000000" d="M153.5224 109.1102c-2.648 0.098 -5.294 0.208 -7.942 0.326 -1.292 0.058 -1.25 2 0.044 2 0 0 5.33 -0.23 7.972 -0.328 1.316 -0.048 1.258 -2.048 -0.074 -1.998Z" stroke-width="1"></path><path id="vector_35" fill="#000000" d="M320.954 222.358c-0.552 -0.022 -1.022 0.396 -1.05 0.948 -0.132 2.638 -0.292 5.274 -0.474 7.908 -0.04 0.578 0.418 1.068 1 1.068 0.52 0 0.96 -0.404 0.998 -0.932 0.182 -2.644 0.34 -5.292 0.476 -7.944 0.028 -0.552 -0.398 -1.02 -0.95 -1.048Z" stroke-width="1"></path><path id="vector_36" fill="#000000" d="M319.89 238.202c-0.53 -0.042 -1.036 0.358 -1.084 0.908 -0.232 2.63 -0.492 5.258 -0.774 7.884 -0.064 0.59 0.398 1.108 0.996 1.108 0.504 0 0.938 -0.38 0.994 -0.892 0.286 -2.638 0.544 -5.28 0.778 -7.922 0.048 -0.55 -0.358 -1.036 -0.908 -1.084l-0.002 -0.002Z" stroke-width="1"></path><path id="vector_37" fill="#000000" d="M318.224 253.994c-0.53 -0.064 -1.048 0.318 -1.118 0.866 -0.332 2.606 -0.69 5.21 -1.082 7.994 0 1.394 1.99 1.364 1.99 0.108 0.384 -2.614 0.744 -5.23 1.078 -7.85 0.07 -0.546 -0.318 -1.048 -0.866 -1.118h-0.002Z" stroke-width="1"></path><path id="vector_38" fill="#000000" d="M316.048 269.704c-0.524 -0.18 -1.092 0.1 -1.27 0.622 -0.824 2.402 -2.034 4.646 -3.594 6.674 -0.51 0.664 -0.026 1.61 0.792 1.61 0.3 0 0.596 -0.132 0.792 -0.388 1.696 -2.2 3.008 -4.636 3.904 -7.246 0.178 -0.522 -0.1 -1.09 -0.622 -1.27l-0.002 -0.002Z" stroke-width="1"></path><path id="vector_39" fill="#000000" d="M321.414 206.484c-0.546 -0.002 -1 0.44 -1.006 0.988 -0.036 2.642 -0.094 5.282 -0.176 7.92 -0.042 1.292 1.958 1.402 1.998 0.062 0.084 -2.65 0.144 -5.302 0.178 -7.958 0.006 -0.552 -0.442 -1.008 -0.994 -1.012Z" stroke-width="1"></path><path id="vector_40" fill="#000000" d="M248.858 110.22c-2.648 -0.158 -5.292 -0.304 -7.936 -0.44 -0.542 -0.032 -1.022 0.396 -1.05 0.948 -0.028 0.552 0.396 1.022 0.948 1.05 5.838 0.3 7.776 0.44 7.982 0.44 1.284 0 1.338 -1.922 0.056 -1.998Z" stroke-width="1"></path><path id="vector_41" fill="#000000" d="m195.9322 292.316 -7.94 -0.018c-0.548 0 -0.996 0.444 -1 0.994 -0.004 0.552 0.44 1.002 0.994 1.006 3.668 0.026 5.792 0.022 7.95 0.018 0.552 0 1 -0.45 0.998 -1.002 0 -0.55 -0.452 -0.998 -1.002 -0.998Z" stroke-width="1"></path><path id="vector_42" fill="#000000" d="M164.216 291.804c-2.64 -0.09 -5.282 -0.192 -7.924 -0.308 -0.528 -0.02 -1.018 0.404 -1.042 0.956 -0.024 0.552 0.404 1.02 0.956 1.042 2.65 0.116 7.978 0.308 7.978 0.308 1.3 0 1.334 -1.954 0.034 -2l-0.002 0.002Z" stroke-width="1"></path><path id="vector_43" fill="#000000" d="M201.204 108.518c-2.6516 -0.032 -7.9516 -0.062 -7.9516 -0.062 -0.55 0 -0.998 0.446 -1 0.996 0 0.552 0.444 1.002 0.996 1.004 2.642 0.01 7.9436 0.062 7.9436 0.062 0.546 0 0.994 -0.44 1 -0.988 0.006 -0.552 -0.436 -1.004 -0.988 -1.012Z" stroke-width="1"></path><path id="vector_44" fill="#000000" d="M169.4142 108.6542c-2.652 0.054 -5.3 0.12 -7.946 0.196 -1.304 0.038 -1.278 2 0.028 2 0 0 5.314 -0.14 7.96 -0.194 1.262 -0.026 1.35 -1.942 -0.042 -2.002Z" stroke-width="1"></path><path id="vector_45" fill="#000000" d="M180.07 292.204c-2.64 -0.042 -5.284 -0.098 -7.928 -0.164 -0.556 -0.05 -1.012 0.422 -1.026 0.974 -0.014 0.552 0.422 1.01 0.974 1.024 2.652 0.068 7.962 0.166 7.962 0.166 0.544 0 0.992 -0.436 1 -0.984 0.008 -0.552 -0.432 -1.006 -0.984 -1.016h0.002Z" stroke-width="1"></path><path id="vector_46" fill="#000000" d="M211.79 292.124c-2.64 0.058 -5.284 0.102 -7.928 0.134 -0.552 0.006 -0.996 0.46 -0.988 1.012 0.006 0.548 0.454 0.988 1 0.988 0 0 5.314 -0.076 7.96 -0.134 1.312 -0.03 1.294 -2.022 -0.042 -2h-0.002Z" stroke-width="1"></path><path id="vector_47" fill="#000000" d="M232.984 109.402c-2.65 -0.116 -5.296 -0.22 -7.942 -0.314 -0.536 -0.026 -1.016 0.41 -1.036 0.962 -0.02 0.552 0.412 1.016 0.962 1.036 2.642 0.096 7.972 0.316 7.972 0.316 1.294 0 1.338 -1.944 0.044 -2Z" stroke-width="1"></path><path id="vector_48" fill="#000000" d="M243.48 290.804c-2.636 0.162 -5.276 0.312 -7.916 0.45 -1.288 0.066 -1.238 1.998 0.05 1.998 0 0 5.346 -0.288 7.99 -0.452 1.316 -0.082 1.204 -2.076 -0.124 -1.996Z" stroke-width="1"></path><path id="vector_49" fill="#000000" d="M227.64 291.622c-2.64 0.066 -5.28 0.206 -7.924 0.29 -1.302 0.042 -1.272 2 0.03 2 0 0 5.332 -0.18 7.978 -0.292 1.29 -0.054 1.276 -2.032 -0.084 -1.998Z" stroke-width="1"></path><path id="vector_50" fill="#000000" d="M217.096 108.8338c-2.65 -0.074 -5.298 -0.136 -7.946 -0.19 -1.328 -0.026 -1.36 1.972 -0.04 2 2.642 0.052 7.958 0.19 7.958 0.19 0.54 0 0.984 -0.43 1 -0.972 0.014 -0.552 -0.42 -1.012 -0.972 -1.028Z" stroke-width="1"></path><path id="vector_51" fill="#000000" d="M296.426 114.0266c-2.178 -0.324 -1.05 -0.044 -6.392 -0.548 2.522 2.564 1.326 2.142 2.682 2.276 2.082 0 3.324 0.262 3.564 0.262 1.23 0 1.364 -1.81 0.146 -1.99Z" stroke-width="1"></path></g><g id="interface"><path id="vector_52" fill="#000000" d="M210.442 195.7094c27.662 0.182 53.538 0.39 57.522 0.482 6.148 0.142 11.154 5.0046 11.154 11.1566 0 6.008 -4.776 10.922 -10.73 11.146 2.298 0.01 4.594 -0.08 6.884 -0.268 3.522 -2.358 5.846 -6.328 5.846 -10.878 0 -7.252 -5.902 -12.9886 -13.108 -13.1546 -7.782 -0.18 -32.27 -0.354 -59.696 -0.422 0.7 0.66 1.412 1.304 2.128 1.938Z" stroke-width="1"></path><path id="vector_53" fill="#000000" d="M236.73 219.396c-22.876 0.49 -56.9558 0.798 -98.1078 -0.304 -1.096 -7.822 -1.468 -15.23 -0.808 -23.6682 2.704 -0.1 30.41 0.026 59.62 0.204 -0.608 -0.616 -1.208 -1.244 -1.802 -1.878 -29.86 -0.036 -60.674 0.07 -75.734 0.444 -7.25 0.18 -13.154 5.9022 -13.154 13.1562 0 7.254 5.902 13.024 13.118 13.154 58.69 1.06 58.638 2.066 123.3378 0.544 -2.17 -0.464 -4.33 -1.018 -6.47 -1.652Zm-116.8318 -0.892c-6.15 -0.112 -11.154 -5.004 -11.154 -11.156 0 -6.152 5.006 -11.0022 11.204 -11.1562 5.26 -0.13 10.542 -0.49 15.854 -0.692 -0.61 7.8342 -0.33 15.7502 0.788 23.5362 -5.578 -0.156 -11.142 -0.432 -16.692 -0.532Z" stroke-width="1"></path><path id="vector_54" fill="#000000" d="m128.26 212.784 -2.276 -3.642c3.324 -3.404 0.94 -9.2044 -3.876 -9.2044 -2.988 0 -5.42 2.4324 -5.42 5.4204 0 3.93 4.08 6.562 7.656 4.934l2.22 3.552c0.19 0.302 0.516 0.47 0.848 0.47 0.778 0 1.268 -0.86 0.848 -1.53Zm-9.572 -7.426c0 -1.886 1.534 -3.42 3.42 -3.42s3.42 1.534 3.42 3.42 -1.534 3.42 -3.42 3.42 -3.42 -1.534 -3.42 -3.42Z" stroke-width="1"></path></g><g id="magnifier"><path id="vector_55" fill="#000000" d="M240.362 57.8998c0.224 0.488 0.472 0.964 0.73 1.438 6.842 -0.568 14.154 -0.05 21.34 1.626 0.11 -0.474 0.212 -0.942 0.308 -1.404 -7.396 -1.754 -14.948 -2.34 -22.378 -1.66Z" stroke-width="1"></path><path id="vector_56" fill="#000000" d="M242.04 45.4116c-2.4 3.094 -3.406 7.33 -2.234 11.068 7.738 -1.878 15.7 -2.232 23.56 -1.216 0.34 -4.558 -0.66 -8.232 -4.148 -11.186 -5.574 -0.124 -11.31 0.302 -17.176 1.334h-0.002Z" stroke-width="1"></path><path id="vector_57" fill="#000000" d="M354.738 294.4c-4.98 -10.278 -38.586 -77.232 -43.654 -87.64 15.424 -10.0728 26.724 -25.4528 32.122 -43.9168 12.296 -42.074 -9.304 -89.332 -47.084 -109.188 -0.746 4.09 -2.298 7.926 -4.154 11.646 49.444 29.33 56.346 101.418 12.168 129.75 35.838 -31.504 27.858 -94.54 -15.31 -123.884l-0.712 1.274c46.38 31.924 49.812 100.424 7.356 127.226 -7.96 3.4508 -16.412 5.1008 -24.932 5.1008 -50.65 -0.004 -90.32 -54.8328 -75.902 -104.1728 3.72 -12.726 10.786 -23.624 20.344 -31.616 -2.064 -3.07 -3.476 -7.148 -3.434 -12.954 -43.12 22.452 -54.1 76.466 -30.562 118.844 22.388 40.3028 71.118 61.0188 113.494 40.9168 8.984 19.828 30.248 62.258 42.572 87.068 1.638 3.298 8.504 2.39 12.288 0.416 4.03 -2.102 6.864 -5.718 5.4 -8.87ZM182.294 174.1412c-22.07 -39.738 -12.986 -88.95 22.57 -112.478 -30.638 26.232 -35.916 72.212 -15.58 108.824 21.012 37.8308 63.194 56.0008 100.018 46.0368 -38.156 15.554 -84.736 -2.29 -107.008 -42.3828Z" stroke-width="1"></path></g><g id="question mark"><path id="vector_58" fill="#000000" d="M296.624 56.04c3.682 -14.47 -2.596 -30.802 -15.268 -39.71208 -12.1 -8.512 -28.948 -9.744 -42.916 -3.142 -15.958 7.54608 -30.028 16.03808 -35.192 38.33808 -5.5098 23.792 11.358 34.384 24.688 29.512 1.924 -0.704 11.232 -5.562 12.386 -6.578 3.174 -2.798 4.798 -7.022 3.802 -10.866 -0.672 -2.596 -2.286 -4.566 -3.164 -6.838 -1.34 -3.464 -0.504 -7.582 1.772 -10.598 4.684 0.092 9.248 3.188 10.722 7.528 1.894 5.57 -0.56 12.436 -3.326 21.54 -2.194 7.218 -4.46 14.68 -5.326 22.332 -1.412 12.512 1.642 23.732 8.378 30.782 6.262 6.554 16.912 9.164 25.024 5.582 1.696 -0.75 11.106 -5.29 13.464 -7.666 1.572 -1.584 2.522 -3.228 2.822 -4.886 1.088 -6.034 -5.478 -9.624 -9.148 -13.734 -6.134 -6.868 -4.524 -17.828 -0.974 -25.792 3.856 -8.65 9.876 -16.442 12.256 -25.796v-0.006Zm-12.774 52.92c3.63 4.066 9.524 7.326 8.672 12.046 -0.622 3.456 -6 8.394 -14.102 8.336 -5.782 -0.054 -11.548 -2.514 -15.43 -6.576 -6.326 -6.62 -9.18 -17.254 -7.834 -29.174 1.182 -10.48 5.084 -20.658 7.866 -30.9 1.16 -4.268 2.262 -9.21 0.692 -13.836 -2.232 -6.57 -10.17 -10.512 -16.744 -8.248 -6.588 2.28 -10.378 10.392 -7.874 16.866 0.896 2.31 2.526 4.424 3.094 6.616 1.198 4.634 -2.432 9.37 -6.578 10.884 -8.786 3.214 -18.306 -1.256 -21.668 -10.172 -5.22 -13.842 4.284 -39.852 25.352 -49.80808 13.33 -6.3 29.39 -5.132 40.912 2.97 11.818 8.31008 17.908 24.11808 14.48 37.58408 -2.29 8.992 -8.3 16.846 -12.144 25.474 -3.806 8.538 -5.462 20.36 1.306 27.938Z" stroke-width="1"></path><path id="vector_59" fill="#000000" d="M299.18 137.0918c-4.832 0 -19.224 7.124 -21.72 9.448 -3.848 3.582 -6.258 8.688 -6.258 14.35 0 13.396 13.222 22.888 25.906 18.578 2.362 -0.802 12.966 -6.104 15.47 -8.45 12.94 -12.12 4.33 -33.926 -13.398 -33.926Zm0 37.23c-9.712 0 -17.616 -7.902 -17.616 -17.614s7.902 -17.616 17.616 -17.616c9.714 0 17.616 7.902 17.616 17.616 0 9.714 -7.902 17.614 -17.616 17.614Z" stroke-width="1"></path></g></g></svg>