<svg width="198" height="207" viewBox="0 0 198 207" fill="none" xmlns="http://www.w3.org/2000/svg">
<path d="M145.03 36.0503V43.3799" stroke="#00A9FF" stroke-width="2" stroke-miterlimit="10" stroke-linecap="round"/>
<path d="M141.796 39.7153H148.264" stroke="#00A9FF" stroke-width="2" stroke-miterlimit="10" stroke-linecap="round"/>
<path d="M62.7705 1V7.47407" stroke="#00A9FF" stroke-width="2" stroke-miterlimit="10" stroke-linecap="round"/>
<path d="M59.9138 4.23682H65.6271" stroke="#00A9FF" stroke-width="2" stroke-miterlimit="10" stroke-linecap="round"/>
<path d="M168.5 6.88134C168.5 7.733 168.278 8.56552 167.86 9.27364C167.443 9.98177 166.849 10.5337 166.155 10.8596C165.46 11.1855 164.696 11.2708 163.959 11.1046C163.222 10.9385 162.545 10.5284 162.013 9.92616C161.482 9.32396 161.12 8.5567 160.973 7.72141C160.827 6.88612 160.902 6.02032 161.19 5.2335C161.477 4.44668 161.964 3.77417 162.589 3.30101C163.214 2.82786 163.949 2.57532 164.7 2.57532C165.708 2.57532 166.675 3.02899 167.387 3.83652C168.1 4.64406 168.5 5.73932 168.5 6.88134Z" stroke="#00A9FF" stroke-width="2" stroke-miterlimit="10"/>
<path d="M34.3943 98.0156C34.3943 98.8673 34.1714 99.6998 33.7539 100.408C33.3363 101.116 32.7428 101.668 32.0484 101.994C31.3541 102.32 30.59 102.405 29.8529 102.239C29.1157 102.073 28.4386 101.663 27.9072 101.06C27.3758 100.458 27.0138 99.691 26.8672 98.8557C26.7206 98.0204 26.7958 97.1546 27.0835 96.3678C27.3711 95.581 27.8581 94.9084 28.483 94.4353C29.108 93.9621 29.8427 93.7096 30.5942 93.7096C31.6021 93.7096 32.5686 94.1633 33.2813 94.9708C33.9939 95.7783 34.3943 96.8736 34.3943 98.0156Z" stroke="#00A9FF" stroke-width="2" stroke-miterlimit="10"/>
<path d="M181.051 93.0702C181.051 93.4825 180.943 93.8855 180.74 94.2282C180.538 94.571 180.251 94.8382 179.915 94.9959C179.579 95.1536 179.209 95.1949 178.852 95.1144C178.495 95.034 178.167 94.8354 177.91 94.5439C177.653 94.2524 177.477 93.8809 177.406 93.4766C177.335 93.0722 177.372 92.6531 177.511 92.2721C177.65 91.8912 177.886 91.5656 178.189 91.3365C178.491 91.1074 178.847 90.9851 179.211 90.985C179.699 90.985 180.167 91.2047 180.512 91.5957C180.857 91.9868 181.051 92.5171 181.051 93.0702Z" stroke="#00A9FF" stroke-width="2" stroke-miterlimit="10"/>
<path d="M47.6952 80.6237C47.6951 81.036 47.5872 81.4391 47.385 81.7818C47.1828 82.1246 46.8955 82.3917 46.5593 82.5495C46.2232 82.7072 45.8533 82.7485 45.4964 82.668C45.1396 82.5876 44.8118 82.389 44.5545 82.0975C44.2972 81.806 44.122 81.4345 44.051 81.0302C43.98 80.6258 44.0164 80.2066 44.1556 79.8257C44.2948 79.4448 44.5306 79.1192 44.8331 78.8901C45.1356 78.661 45.4912 78.5387 45.8551 78.5386C46.3431 78.5386 46.8112 78.7583 47.1562 79.1493C47.5013 79.5404 47.6952 80.0707 47.6952 80.6237Z" stroke="#00A9FF" stroke-width="2" stroke-miterlimit="10"/>
<path d="M173.032 82.3543C173.041 83.1424 172.911 83.9246 172.651 84.6556C172.391 85.3866 172.006 86.0518 171.517 86.6125C171.028 87.1733 170.446 87.6185 169.804 87.9222C169.162 88.2259 168.474 88.3822 167.778 88.3819H130.255C130.8 89.5113 131.008 90.8104 130.847 92.0846C130.685 93.3589 130.164 94.5397 129.362 95.4503C129.055 95.7961 128.713 96.099 128.343 96.3525H135.274C136.673 96.3373 138.021 96.9442 139.029 98.0428C140.037 99.1414 140.624 100.644 140.665 102.228C140.674 103.016 140.544 103.799 140.284 104.53C140.024 105.261 139.638 105.926 139.15 106.487C138.661 107.048 138.079 107.493 137.437 107.798C136.795 108.102 136.107 108.259 135.411 108.259H100.956C99.8063 108.259 98.6881 107.831 97.7733 107.042C96.8585 106.252 96.1975 105.144 95.8918 103.888C95.586 102.632 95.6523 101.297 96.0805 100.088C96.5088 98.8784 97.2753 97.8617 98.2625 97.1934H77.6214C76.2229 97.2087 74.875 96.6018 73.867 95.5032C72.8591 94.4046 72.2716 92.9018 72.2307 91.3177C72.2189 90.2553 72.4582 89.2086 72.9239 88.2863C73.3896 87.364 74.0646 86.5998 74.8789 86.0729C74.0251 85.5712 73.3094 84.8133 72.81 83.882C72.3105 82.9507 72.0465 81.8818 72.0468 80.792V73.5001C72.046 72.5692 72.2382 71.6511 72.6079 70.8198C72.9777 69.9885 73.5147 69.2673 74.1756 68.7144H37.0857C35.6888 68.7291 34.3423 68.1234 33.3347 67.027C32.3271 65.9306 31.7385 64.4306 31.695 62.8484C31.6846 62.0592 31.8129 61.2756 32.0723 60.5432C32.3317 59.8107 32.717 59.144 33.2059 58.5819C33.6948 58.0197 34.2775 57.5734 34.9201 57.2688C35.5626 56.9642 36.2522 56.8075 36.9487 56.8078H39.5711C40.6472 56.8074 41.6791 56.3228 42.44 55.4605C43.2009 54.5983 43.6285 53.429 43.6289 52.2097V52.2064C43.6285 50.9871 43.2009 49.8178 42.44 48.9555C41.6791 48.0933 40.6472 47.6087 39.5711 47.6083H22.1203C21.4255 47.6175 20.7359 47.4704 20.0916 47.1754C19.4473 46.8805 18.861 46.4436 18.3668 45.89C17.8725 45.3365 17.4801 44.6773 17.2123 43.9507C16.9445 43.2241 16.8066 42.4445 16.8066 41.6571C16.8066 40.8696 16.9445 40.09 17.2123 39.3634C17.4801 38.6368 17.8725 37.9776 18.3668 37.4241C18.861 36.8706 19.4473 36.4336 20.0916 36.1387C20.7359 35.8437 21.4255 35.6966 22.1203 35.7058H47.3497C48.0396 35.706 48.7227 35.5523 49.3602 35.2533C49.9976 34.9544 50.5768 34.5161 51.0647 33.9635C51.5527 33.4109 51.9398 32.7548 52.204 32.0326C52.4681 31.3105 52.6042 30.5365 52.6044 29.7548C52.6046 28.973 52.4689 28.1989 52.2051 27.4766C51.9412 26.7543 51.5544 26.098 51.0668 25.5451C50.5791 24.9922 50.0001 24.5535 49.3628 24.2542C48.7255 23.9548 48.0425 23.8007 47.3526 23.8005H40.1469C38.7467 23.8148 37.3976 23.2055 36.3899 22.1038C35.3822 21.0022 34.7966 19.4962 34.759 17.9101C34.7517 17.1232 34.8822 16.3423 35.1429 15.6129C35.4037 14.8834 35.7895 14.2198 36.2782 13.6605C36.7668 13.1011 37.3484 12.6572 37.9895 12.3543C38.6305 12.0514 39.3182 11.8956 40.0128 11.8959H87.9349C89.3004 11.8809 90.619 12.459 91.62 13.5114C92.6209 14.5638 93.2282 16.0107 93.317 17.5547C93.3633 18.6099 93.1614 19.66 92.732 20.5977H154.534C155.229 20.5885 155.919 20.7357 156.563 21.0306C157.207 21.3256 157.794 21.7625 158.288 22.316C158.782 22.8696 159.174 23.5287 159.442 24.2553C159.71 24.982 159.848 25.7616 159.848 26.549C159.848 27.3364 159.71 28.116 159.442 28.8427C159.174 29.5693 158.782 30.2284 158.288 30.782C157.794 31.3355 157.207 31.7724 156.563 32.0674C155.919 32.3623 155.229 32.5095 154.534 32.5003H131.642C131.641 33.7814 131.192 35.01 130.393 35.9159C129.593 36.8219 128.509 37.3312 127.378 37.3319H101.575C102.34 38.1499 102.871 39.2094 103.098 40.373C103.326 41.5367 103.239 42.7509 102.851 43.8584C102.462 44.9658 101.789 45.9155 100.918 46.5843C100.048 47.2532 99.0199 47.6103 97.9681 47.6095H90.7541C90.4702 47.6092 90.1891 47.6723 89.9267 47.7952C89.6643 47.918 89.4258 48.0983 89.2249 48.3256C89.0241 48.5529 88.8647 48.8229 88.7559 49.1201C88.6471 49.4172 88.5911 49.7358 88.591 50.0575V50.0607C88.5911 50.3824 88.6471 50.701 88.7559 50.9981C88.8647 51.2953 89.0241 51.5653 89.2249 51.7926C89.4258 52.0199 89.6643 52.2002 89.9267 52.323C90.1891 52.4459 90.4702 52.509 90.7541 52.5087H149.32C150.015 52.4995 150.705 52.6466 151.349 52.9415C151.993 53.2365 152.58 53.6734 153.074 54.2269C153.568 54.7805 153.961 55.4397 154.228 56.1663C154.496 56.8929 154.634 57.6725 154.634 58.4599C154.634 59.2474 154.496 60.027 154.228 60.7536C153.961 61.4802 153.568 62.1393 153.074 62.6929C152.58 63.2464 151.993 63.6833 151.349 63.9783C150.705 64.2732 150.015 64.4204 149.32 64.4112H134.173C134.941 64.9437 135.576 65.6907 136.016 66.5808C136.456 67.4708 136.687 68.474 136.687 69.4943V71.1919C136.688 72.284 136.423 73.3551 135.922 74.2878C135.42 75.2204 134.702 75.9785 133.845 76.479H167.642C169.04 76.4638 170.388 77.0706 171.396 78.1693C172.404 79.2679 172.991 80.7706 173.032 82.3547" fill="#FBF8FF"/>
<path d="M87.1825 142.427C112.904 142.427 133.756 140.813 133.756 138.821C133.756 136.83 112.904 135.216 87.1825 135.216C61.4609 135.216 40.6094 136.83 40.6094 138.821C40.6094 140.813 61.4609 142.427 87.1825 142.427Z" fill="#EDE2FD"/>
<path d="M133.049 27.4113C132.843 27.4112 132.638 27.3766 132.441 27.3086L77.0962 8.24952C76.5667 8.06718 76.1229 7.65397 75.8623 7.10081C75.6017 6.54764 75.5457 5.89984 75.7066 5.2999C75.8676 4.69995 76.2322 4.19702 76.7204 3.90174C77.2085 3.60645 77.7802 3.543 78.3097 3.72535L133.654 22.7844C134.133 22.9493 134.543 23.3035 134.811 23.7824C135.078 24.2614 135.185 24.8332 135.111 25.3937C135.038 25.9543 134.789 26.4664 134.411 26.8367C134.032 27.207 133.549 27.4109 133.049 27.4113Z" fill="#EADFFC"/>
<path d="M77.7006 3.78433C77.8924 3.78458 78.0831 3.81688 78.2666 3.8802L133.613 22.9392C133.859 23.0212 134.089 23.1578 134.288 23.3409C134.488 23.524 134.653 23.7501 134.775 24.0062C134.897 24.2622 134.973 24.5431 134.999 24.8327C135.025 25.1222 135 25.4146 134.925 25.693C134.85 25.9714 134.728 26.2303 134.564 26.4547C134.401 26.6791 134.2 26.8646 133.972 27.0004C133.745 27.1362 133.497 27.2197 133.241 27.2461C132.985 27.2724 132.727 27.2411 132.482 27.1539L77.1359 8.09524C76.69 7.94177 76.3075 7.61186 76.0582 7.16563C75.8089 6.71939 75.7094 6.18652 75.7778 5.6641C75.8461 5.14168 76.0779 4.66448 76.4307 4.31945C76.7836 3.97442 77.2341 3.78451 77.7002 3.78433M77.7002 3.45935C77.1656 3.45935 76.6488 3.67701 76.244 4.07267C75.8392 4.46833 75.5733 5.01564 75.4949 5.61485C75.4164 6.21406 75.5305 6.82527 75.8165 7.33708C76.1025 7.8489 76.5412 8.22724 77.0527 8.40316L132.4 27.465C132.965 27.6598 133.576 27.592 134.098 27.2764C134.619 26.9609 135.009 26.4235 135.181 25.7824C135.353 25.1414 135.293 24.4492 135.014 23.8582C134.736 23.2672 134.262 22.8257 133.696 22.6309L78.3494 3.57106C78.1391 3.49816 77.9205 3.46105 77.7006 3.46098" stroke="#00A9FF" stroke-width="2"/>
<path d="M100.578 61.6869C96.6783 61.684 92.8333 60.6468 89.3507 58.6584C85.8681 56.6699 82.8446 53.7853 80.5221 50.2355C78.1996 46.6857 76.6426 42.5692 75.9756 38.2153C75.3086 33.8615 75.5502 29.3912 76.6811 25.1621L80.8565 9.59375L128.632 26.046L124.457 41.6143C122.899 47.489 119.683 52.6226 115.304 56.2288C111.025 59.7573 105.872 61.6671 100.579 61.6865L100.578 61.6869Z" fill="white"/>
<path d="M77.2783 44.4612C79.0844 48.0161 81.3163 51.2705 83.9105 54.1315C86.9362 57.4329 91.1879 60.5125 94.96 60.9561C103.838 61.9965 105.233 61.6751 106.946 60.9561C108.658 60.2371 116.966 56.1285 117.665 54.1315C118.364 52.1344 77.2783 44.4612 77.2783 44.4612Z" fill="#F8F4FF"/>
<path d="M96.9989 51.8181C108.021 54.4729 117.164 55.5217 117.419 54.1607C117.674 52.7997 108.946 49.5441 97.9234 46.8893C86.901 44.2345 77.7586 43.1856 77.5033 44.5467C77.248 45.9077 85.9765 49.1632 96.9989 51.8181Z" fill="#EFE8FC"/>
<path d="M80.9515 9.79572L128.454 26.1537L124.32 41.5673C122.771 47.4082 119.574 52.5124 115.22 56.0981C112.115 58.677 108.521 60.3998 104.725 61.1295C100.929 61.8593 97.0348 61.576 93.3522 60.3022C90.2331 59.2281 87.3313 57.4684 84.8124 55.1236C82.2936 52.7788 80.2069 49.8947 78.6717 46.636C77.1364 43.3774 76.1827 39.808 75.8648 36.1316C75.5469 32.4553 75.8712 28.744 76.8191 25.2097L80.9515 9.79572ZM80.7615 9.39233L76.5449 25.1134C74.6086 32.3334 75.2826 40.1293 78.4189 46.7861C81.5551 53.4429 86.8965 58.4153 93.2681 60.6095C99.6397 62.8036 106.52 62.0398 112.394 58.486C118.269 54.9322 122.657 48.8795 124.593 41.6595L128.81 25.9384L80.7615 9.39233Z" stroke="#00A9FF" stroke-width="2"/>
<path d="M111.04 116.749C110.855 116.749 110.671 116.721 110.492 116.665L54.6644 99.3846C54.1758 99.2309 53.7527 98.8824 53.473 98.4032C53.1933 97.924 53.0758 97.3464 53.1421 96.7768C53.2084 96.2072 53.4542 95.6839 53.834 95.3033C54.2139 94.9228 54.7023 94.7105 55.2093 94.7057C55.3944 94.7058 55.5786 94.7339 55.7571 94.7894L111.585 112.071C112.073 112.224 112.496 112.573 112.776 113.052C113.056 113.531 113.173 114.109 113.107 114.679C113.041 115.248 112.795 115.771 112.415 116.152C112.035 116.533 111.547 116.745 111.04 116.75" fill="#EADFFC"/>
<path d="M111.04 116.749C110.855 116.749 110.671 116.721 110.492 116.665L54.6644 99.3846C54.1758 99.2309 53.7527 98.8824 53.473 98.4032C53.1933 97.924 53.0758 97.3464 53.1421 96.7768C53.2084 96.2072 53.4542 95.6839 53.834 95.3033C54.2139 94.9228 54.7023 94.7105 55.2093 94.7057C55.3944 94.7058 55.5786 94.7339 55.7571 94.7894L111.585 112.071C112.073 112.224 112.496 112.573 112.776 113.052C113.056 113.531 113.173 114.109 113.107 114.679C113.041 115.248 112.795 115.771 112.415 116.152C112.035 116.533 111.547 116.745 111.04 116.75" stroke="#00A9FF" stroke-width="2"/>
<path d="M59.5759 96.0673L63.334 80.3621C64.1871 76.7698 65.6569 73.4035 67.6595 70.4557C69.6621 67.5079 72.1581 65.0367 75.0046 63.1833C77.851 61.33 80.9921 60.1309 84.2481 59.6549C87.504 59.1788 90.8108 59.435 93.9792 60.4089C97.1476 61.3828 100.115 63.0552 102.713 65.3304C105.31 67.6056 107.486 70.4389 109.116 73.6681C110.746 76.8973 111.797 80.4591 112.211 84.1495C112.624 87.8399 112.392 91.5865 111.526 95.1748L107.765 110.88L59.5759 96.0673Z" fill="white"/>
<path d="M71.0212 66.6613C71.0212 66.6613 69.6528 85.8515 90.9926 86.0286C112.332 86.2058 112.136 89.4198 112.136 89.4198C112.347 92.2436 111.981 95.0846 111.067 97.7223C109.539 102.199 107.679 110.918 107.679 110.918L75.3991 100.92L59.4214 95.9049L63.1203 81.5106C63.1203 81.5106 64.4765 73.0122 67.7991 70.2397C71.1216 67.4672 71.0212 66.6613 71.0212 66.6613Z" fill="#F8F4FF"/>
<path d="M91.1291 59.7691L85.2341 79.1967C85.2341 79.1967 85.695 79.9686 86.1731 79.6829L96.6793 62.1844L91.1291 59.7691Z" fill="#F8F4FF"/>
<path d="M87.4147 59.3105V59.6355C91.2318 59.629 94.9987 60.6206 98.4223 62.5333C101.846 64.4459 104.834 67.228 107.153 70.663C109.473 74.0979 111.062 78.0931 111.797 82.3376C112.531 86.5821 112.391 90.9614 111.388 95.1347L107.665 110.684L59.7511 95.954L63.4719 80.4048C64.898 74.4451 68.0148 69.1825 72.3417 65.4287C76.6685 61.675 81.965 59.6385 87.4144 59.6335L87.4147 59.3105ZM87.4147 59.3105C81.9014 59.3096 76.5415 61.3672 72.1638 65.165C67.7862 68.9627 64.6348 74.2891 63.197 80.3203L59.4009 96.1815L107.865 111.079L111.665 95.2179C112.672 90.9972 112.808 86.5704 112.061 82.2807C111.315 77.9909 109.708 73.9535 107.363 70.4813C105.018 67.0091 101.999 64.1953 98.5397 62.2581C95.0806 60.321 91.2743 59.3124 87.4158 59.3105" stroke="#00A9FF" stroke-width="2"/>
<path d="M84.782 83.4948C85.5148 83.5824 86.1716 82.9802 86.2489 82.1498C86.3263 81.3194 85.7949 80.5752 85.062 80.4875C84.3292 80.3999 83.6724 81.002 83.5951 81.8325C83.5177 82.6629 84.0491 83.4071 84.782 83.4948Z" fill="#F8F4FF"/>
<path d="M124.29 123.445H95.6074C95.2193 123.445 94.8714 123.218 94.6768 122.837C94.4823 122.457 94.4814 122.002 94.6744 121.62L109.015 93.2761C109.21 92.8926 109.558 92.6636 109.949 92.6636C110.339 92.6636 110.687 92.8926 110.882 93.2761L125.223 121.62C125.416 122.002 125.415 122.457 125.22 122.837C125.026 123.218 124.678 123.445 124.29 123.445Z" fill="#F8F4FF"/>
<path d="M109.949 93.0698C109.824 93.0698 109.513 93.1096 109.327 93.4781L94.9855 121.822C94.8 122.189 94.9248 122.512 94.9871 122.634C95.0494 122.755 95.2345 123.039 95.6075 123.039H124.29C124.663 123.039 124.848 122.755 124.91 122.634C124.972 122.512 125.097 122.189 124.912 121.822L110.571 93.4781C110.384 93.1096 110.073 93.0698 109.949 93.0698ZM109.949 92.2573C110.433 92.2573 110.917 92.5296 111.193 93.074L125.534 121.418C126.082 122.501 125.391 123.851 124.29 123.851C124.29 123.851 124.29 123.851 124.29 123.851H95.6075C94.5055 123.851 93.8154 122.501 94.3635 121.418L108.705 93.074C108.98 92.5296 109.464 92.2573 109.949 92.2573Z" fill="#00A9FF"/>
<path d="M109.558 119.42C109.99 119.42 110.34 119.023 110.34 118.533C110.34 118.044 109.99 117.647 109.558 117.647C109.126 117.647 108.775 118.044 108.775 118.533C108.775 119.023 109.126 119.42 109.558 119.42Z" fill="#00A9FF"/>
<path d="M110.34 104.796C110.34 104.306 109.99 103.91 109.558 103.91C109.126 103.91 108.775 104.306 108.775 104.796V114.988C108.775 115.478 109.126 115.875 109.558 115.875C109.99 115.875 110.34 115.478 110.34 114.988V104.796Z" fill="#00A9FF"/>
</svg>
